<svg xmlns="http://www.w3.org/2000/svg" viewBox="0 0 1409.801 1129.131"><title>画板 1</title><g id="label-text" style="opacity:0.85"><g id="_1" data-name="1"><path d="M33.768,73.866h3.495l1.862,5.053c.228.684.418,1.444.646,2.165h.076c.228-.721.418-1.481.646-2.165l1.785-5.053h3.5V86.214H42.811V82.566a42.441,42.441,0,0,1,.418-4.407h-.077l-1.026,2.964-1.52,4.084H38.859l-1.52-4.084-.987-2.964h-.077a42.717,42.717,0,0,1,.418,4.407v3.648H33.768Z" style="fill:#a4a4a4"/><path d="M50.715,73.866h3.952l3.761,12.348H54.97l-1.406-6c-.3-1.178-.607-2.679-.911-3.914h-.076c-.266,1.254-.57,2.736-.874,3.914l-1.406,6H46.954Zm-1.064,7.2h6.041v2.527H49.651Z" style="fill:#a4a4a4"/><path d="M59.417,73.866h3.344L65.5,79.375l1.177,2.773h.076a44.574,44.574,0,0,1-.417-4.711V73.866h3.115V86.214H66.1l-2.735-5.528-1.178-2.755h-.076a46.212,46.212,0,0,1,.418,4.712v3.571H59.417Z" style="fill:#a4a4a4"/><path d="M74.389,73.866h3.952L82.1,86.214H78.645l-1.406-6c-.3-1.178-.608-2.679-.912-3.914h-.076c-.266,1.254-.57,2.736-.874,3.914l-1.406,6H70.628Zm-1.063,7.2h6.041v2.527H73.326Z" style="fill:#a4a4a4"/><path d="M82.56,80.135c0-4.142,2.849-6.5,6.155-6.5a5.569,5.569,0,0,1,4.027,1.633l-1.71,2.09a3.091,3.091,0,0,0-2.2-.912c-1.672,0-2.926,1.33-2.926,3.572,0,2.317,1.026,3.609,3.229,3.609a1.855,1.855,0,0,0,.951-.228v-1.71H88.259V79.033H92.97v5.889a6.237,6.237,0,0,1-4.179,1.52C85.333,86.442,82.56,84.352,82.56,80.135Z" style="fill:#a4a4a4"/><path d="M95.365,73.866h7.979V76.6H98.633v1.938h4.027v2.735H98.633v2.2h4.9v2.736H95.365Z" style="fill:#a4a4a4"/><path d="M105.929,73.866h3.5l1.862,5.053c.228.684.418,1.444.646,2.165h.075c.228-.721.418-1.481.646-2.165l1.786-5.053h3.5V86.214h-2.964V82.566a42.717,42.717,0,0,1,.418-4.407h-.076l-1.026,2.964-1.519,4.084h-1.748l-1.52-4.084-.988-2.964h-.076a42.717,42.717,0,0,1,.418,4.407v3.648h-2.926Z" style="fill:#a4a4a4"/><path d="M120.673,73.866h7.979V76.6h-4.711v1.938h4.027v2.735h-4.027v2.2h4.9v2.736h-8.169Z" style="fill:#a4a4a4"/><path d="M131.237,73.866h3.344l2.735,5.509,1.178,2.773h.076a44.3,44.3,0,0,1-.418-4.711V73.866h3.116V86.214h-3.344l-2.735-5.528-1.178-2.755h-.076a46.212,46.212,0,0,1,.418,4.712v3.571h-3.116Z" style="fill:#a4a4a4"/><path d="M146.361,76.6h-3.268V73.866h9.8V76.6h-3.268v9.613h-3.267Z" style="fill:#a4a4a4"/><path d="M78.512,96.666h3.951l3.762,12.348H82.767l-1.406-6c-.3-1.178-.608-2.679-.911-3.914h-.076c-.267,1.254-.57,2.736-.874,3.914l-1.406,6H74.75Zm-1.064,7.2h6.041v2.527H77.448Z" style="fill:#a4a4a4"/><path d="M87.214,96.666h3.344l2.735,5.509,1.178,2.773h.076a44.566,44.566,0,0,1-.418-4.711V96.666h3.116v12.348H93.9l-2.735-5.529-1.178-2.754h-.076a46.192,46.192,0,0,1,.418,4.711v3.572H87.214Z" style="fill:#a4a4a4"/><path d="M99.982,96.666h3.647c3.762,0,6.346,1.747,6.346,6.117s-2.584,6.231-6.156,6.231H99.982Zm3.457,9.726c1.786,0,3.192-.722,3.192-3.609s-1.406-3.5-3.192-3.5h-.189v7.1Z" style="fill:#a4a4a4"/><path d="M48.473,122.2H45.206v-2.735h9.8V122.2H51.74v9.613H48.473Z" style="fill:#a4a4a4"/><path d="M56.833,119.466h7.979V122.2H60.1v1.938h4.027v2.736H60.1v2.2H65v2.735H56.833Z" style="fill:#a4a4a4"/><path d="M66.865,125.735c0-4.142,2.85-6.5,5.965-6.5a5.45,5.45,0,0,1,3.838,1.634l-1.71,2.089a3.013,3.013,0,0,0-2.052-.912c-1.444,0-2.7,1.33-2.7,3.572,0,2.317,1.064,3.609,2.66,3.609a3.086,3.086,0,0,0,2.242-1.063l1.71,2.051a5.209,5.209,0,0,1-4.066,1.824C69.6,132.042,66.865,129.952,66.865,125.735Z" style="fill:#a4a4a4"/><path d="M78.531,119.466H81.8v4.6h3.685v-4.6h3.268v12.348H85.484v-4.9H81.8v4.9H78.531Z" style="fill:#a4a4a4"/><path d="M91.489,119.466h3.344l2.735,5.509,1.178,2.774h.076a44.346,44.346,0,0,1-.418-4.712v-3.571h3.116v12.348H98.176l-2.736-5.528-1.177-2.755h-.076a46.5,46.5,0,0,1,.417,4.712v3.571H91.489Z" style="fill:#a4a4a4"/><path d="M104.257,119.466h3.267v12.348h-3.267Z" style="fill:#a4a4a4"/><path d="M109.729,125.735c0-4.142,2.85-6.5,5.965-6.5a5.446,5.446,0,0,1,3.837,1.634l-1.709,2.089a3.013,3.013,0,0,0-2.052-.912c-1.444,0-2.7,1.33-2.7,3.572,0,2.317,1.064,3.609,2.66,3.609a3.086,3.086,0,0,0,2.242-1.063l1.71,2.051a5.209,5.209,0,0,1-4.066,1.824C112.464,132.042,109.729,129.952,109.729,125.735Z" style="fill:#a4a4a4"/><path d="M123.6,119.466h3.952l3.761,12.348h-3.457l-1.406-6c-.3-1.178-.608-2.679-.912-3.914h-.076c-.266,1.254-.57,2.736-.874,3.914l-1.406,6h-3.343Zm-1.063,7.2h6.041v2.526h-6.041Z" style="fill:#a4a4a4"/><path d="M132.3,119.466h3.267v9.613h4.674v2.735H132.3Z" style="fill:#a4a4a4"/><path d="M39.05,148.535c0-4.142,2.849-6.5,5.965-6.5a5.452,5.452,0,0,1,3.838,1.633l-1.71,2.09a3.013,3.013,0,0,0-2.052-.912c-1.444,0-2.7,1.33-2.7,3.572,0,2.317,1.064,3.609,2.66,3.609a3.079,3.079,0,0,0,2.241-1.064L49,153.018a5.207,5.207,0,0,1-4.065,1.824C41.785,154.842,39.05,152.752,39.05,148.535Z" style="fill:#a4a4a4"/><path d="M49.424,148.383c0-4.066,2.317-6.345,5.737-6.345s5.737,2.3,5.737,6.345c0,4.065-2.317,6.459-5.737,6.459S49.424,152.448,49.424,148.383Zm8.131,0c0-2.242-.912-3.534-2.394-3.534s-2.394,1.292-2.394,3.534.912,3.647,2.394,3.647S57.555,150.625,57.555,148.383Z" style="fill:#a4a4a4"/><path d="M63.1,142.266h3.343l2.736,5.509,1.177,2.773h.077a44.3,44.3,0,0,1-.418-4.711v-3.571h3.115v12.348H69.791l-2.736-5.529-1.178-2.754H65.8a46.192,46.192,0,0,1,.418,4.711v3.572H63.1Z" style="fill:#a4a4a4"/><path d="M75.111,153.075l1.862-2.242a5.016,5.016,0,0,0,2.888,1.2c.988,0,1.406-.323,1.406-.874,0-.589-.627-.779-1.672-1.2l-1.539-.646a3.647,3.647,0,0,1-2.489-3.438c0-2.108,1.9-3.837,4.6-3.837a5.935,5.935,0,0,1,4.1,1.652l-1.634,2.052a4.067,4.067,0,0,0-2.469-.893c-.8,0-1.292.285-1.292.836,0,.589.7.8,1.823,1.235l1.5.589a3.394,3.394,0,0,1,2.413,3.381c0,2.09-1.748,3.952-4.825,3.952A7.153,7.153,0,0,1,75.111,153.075Z" style="fill:#a4a4a4"/><path d="M86.512,148.648v-6.382h3.267v6.763c0,2.2.57,3,1.862,3s1.9-.8,1.9-3v-6.763h3.153v6.382c0,4.218-1.6,6.194-5.053,6.194S86.512,152.866,86.512,148.648Z" style="fill:#a4a4a4"/><path d="M99.355,142.266h3.268v9.612H107.3v2.736H99.355Z" style="fill:#a4a4a4"/><path d="M109.5,145h-3.268v-2.735h9.8V145h-3.267v9.613H109.5Z" style="fill:#a4a4a4"/><path d="M117.861,142.266h3.268v12.348h-3.268Z" style="fill:#a4a4a4"/><path d="M123.865,142.266h3.344l2.735,5.509,1.178,2.773h.076a44.3,44.3,0,0,1-.418-4.711v-3.571H133.9v12.348h-3.344l-2.735-5.529-1.178-2.754h-.076a46.192,46.192,0,0,1,.418,4.711v3.572h-3.116Z" style="fill:#a4a4a4"/><path d="M136.1,148.535c0-4.142,2.85-6.5,6.155-6.5a5.57,5.57,0,0,1,4.028,1.633l-1.71,2.09a3.091,3.091,0,0,0-2.2-.912c-1.672,0-2.926,1.33-2.926,3.572,0,2.317,1.026,3.609,3.23,3.609a1.851,1.851,0,0,0,.95-.228v-1.71H141.8v-2.659h4.712v5.889a6.238,6.238,0,0,1-4.18,1.52C138.875,154.842,136.1,152.752,136.1,148.535Z" style="fill:#a4a4a4"/></g><g id="_2" data-name="2"><path d="M40.839,210.639c0-4.577,3.149-7.181,6.593-7.181a6.024,6.024,0,0,1,4.241,1.806l-1.89,2.31a3.329,3.329,0,0,0-2.267-1.008c-1.6,0-2.982,1.47-2.982,3.947,0,2.562,1.176,3.989,2.94,3.989a3.406,3.406,0,0,0,2.477-1.175l1.89,2.267a5.757,5.757,0,0,1-4.493,2.016C43.862,217.61,40.839,215.3,40.839,210.639Z" style="fill:#b2b2b2"/><path d="M52.305,210.471c0-4.493,2.562-7.013,6.341-7.013s6.341,2.541,6.341,7.013c0,4.493-2.562,7.139-6.341,7.139S52.305,214.964,52.305,210.471Zm8.987,0c0-2.477-1.008-3.905-2.646-3.905S56,207.994,56,210.471s1.008,4.031,2.646,4.031S61.292,212.949,61.292,210.471Z" style="fill:#b2b2b2"/><path d="M67.425,203.71h3.863l2.058,5.585c.252.756.462,1.6.714,2.394h.084c.252-.8.461-1.638.713-2.394l1.974-5.585h3.863v13.648H77.419v-4.031a47.16,47.16,0,0,1,.462-4.871H77.8l-1.134,3.275-1.68,4.514H73.052l-1.68-4.514-1.092-3.275H70.2a47.16,47.16,0,0,1,.462,4.871v4.031H67.425Z" style="fill:#b2b2b2"/><path d="M83.72,203.71h5c2.982,0,5.543,1.092,5.543,4.536,0,3.338-2.6,4.787-5.459,4.787H87.332v4.325H83.72Zm4.913,6.467c1.428,0,2.1-.714,2.1-1.931s-.8-1.68-2.184-1.68H87.332v3.611Z" style="fill:#b2b2b2"/><path d="M96.4,210.765V203.71h3.611v7.475c0,2.436.63,3.317,2.058,3.317s2.1-.881,2.1-3.317V203.71h3.486v7.055c0,4.661-1.764,6.845-5.585,6.845S96.4,215.426,96.4,210.765Z" style="fill:#b2b2b2"/><path d="M113.2,206.734h-3.612V203.71h10.834v3.024h-3.611v10.624H113.2Z" style="fill:#b2b2b2"/><path d="M122.444,203.71h8.818v3.024h-5.207v2.141h4.451V211.9h-4.451v2.435h5.417v3.024h-9.028Z" style="fill:#b2b2b2"/><path d="M134.12,203.71h5.165c2.939,0,5.459,1.008,5.459,4.41,0,3.3-2.52,4.661-5.459,4.661h-1.554v4.577H134.12Zm4.913,6.215c1.427,0,2.183-.63,2.183-1.805s-.756-1.554-2.183-1.554h-1.3v3.359Zm-.4,1.911,2.435-2.394,4.431,7.916h-4.032Z" style="fill:#b2b2b2"/><path d="M50.792,240.857l2.058-2.477a5.544,5.544,0,0,0,3.192,1.323c1.091,0,1.553-.357,1.553-.966,0-.651-.693-.861-1.847-1.323l-1.7-.714a4.032,4.032,0,0,1-2.751-3.8c0-2.331,2.1-4.241,5.081-4.241a6.565,6.565,0,0,1,4.536,1.826l-1.806,2.268a4.5,4.5,0,0,0-2.73-.987c-.881,0-1.427.315-1.427.924,0,.651.777.882,2.015,1.365l1.659.651a3.75,3.75,0,0,1,2.667,3.737c0,2.309-1.932,4.367-5.333,4.367A7.906,7.906,0,0,1,50.792,240.857Z" style="fill:#b2b2b2"/><path d="M65.45,237.855l-4.115-8.944H65.2l1.008,2.855c.336,1.029.672,1.974,1.029,3.045h.084c.357-1.071.714-2.016,1.071-3.045l1.007-2.855h3.78l-4.115,8.944v4.7H65.45Z" style="fill:#b2b2b2"/><path d="M73.221,240.857l2.057-2.477A5.544,5.544,0,0,0,78.47,239.7c1.092,0,1.553-.357,1.553-.966,0-.651-.692-.861-1.847-1.323l-1.7-.714a4.031,4.031,0,0,1-2.75-3.8c0-2.331,2.1-4.241,5.081-4.241a6.565,6.565,0,0,1,4.535,1.826l-1.806,2.268a4.5,4.5,0,0,0-2.729-.987c-.882,0-1.428.315-1.428.924,0,.651.777.882,2.016,1.365l1.658.651a3.75,3.75,0,0,1,2.667,3.737c0,2.309-1.932,4.367-5.333,4.367A7.9,7.9,0,0,1,73.221,240.857Z" style="fill:#b2b2b2"/><path d="M88.088,231.934H84.477v-3.023H95.311v3.023H91.7v10.624H88.088Z" style="fill:#b2b2b2"/><path d="M97.329,228.911h8.818v3.023H100.94v2.142h4.451V237.1H100.94v2.436h5.417v3.023H97.329Z" style="fill:#b2b2b2"/><path d="M109,228.911h3.864l2.057,5.585c.252.755.462,1.595.714,2.393h.084c.252-.8.462-1.638.714-2.393l1.974-5.585h3.863v13.647H119v-4.031a47.184,47.184,0,0,1,.461-4.871h-.084l-1.133,3.275-1.68,4.514h-1.932l-1.679-4.514-1.092-3.275h-.084a47.186,47.186,0,0,1,.462,4.871v4.031H109Z" style="fill:#b2b2b2"/><path d="M124.46,240.857l2.058-2.477a5.544,5.544,0,0,0,3.191,1.323c1.092,0,1.554-.357,1.554-.966,0-.651-.693-.861-1.847-1.323l-1.7-.714a4.032,4.032,0,0,1-2.751-3.8c0-2.331,2.1-4.241,5.081-4.241a6.565,6.565,0,0,1,4.536,1.826l-1.806,2.268a4.5,4.5,0,0,0-2.73-.987c-.881,0-1.427.315-1.427.924,0,.651.777.882,2.015,1.365l1.659.651a3.749,3.749,0,0,1,2.666,3.737c0,2.309-1.931,4.367-5.333,4.367A7.9,7.9,0,0,1,124.46,240.857Z" style="fill:#b2b2b2"/><path d="M58.73,254.11h4.032c4.157,0,7.012,1.932,7.012,6.761s-2.855,6.887-6.8,6.887H58.73Zm3.822,10.75c1.973,0,3.527-.8,3.527-3.989s-1.554-3.863-3.527-3.863h-.21v7.852Z" style="fill:#b2b2b2"/><path d="M72.212,254.11h8.819v3.024H75.824v2.141h4.451V262.3H75.824v2.435h5.417v3.024H72.212Z" style="fill:#b2b2b2"/><path d="M83.049,266.057l2.057-2.477A5.549,5.549,0,0,0,88.3,264.9c1.092,0,1.554-.357,1.554-.965,0-.651-.693-.861-1.848-1.323l-1.7-.714a4.032,4.032,0,0,1-2.75-3.8c0-2.331,2.1-4.242,5.081-4.242a6.559,6.559,0,0,1,4.535,1.827l-1.806,2.268a4.5,4.5,0,0,0-2.729-.987c-.882,0-1.428.315-1.428.924,0,.651.777.881,2.016,1.364l1.658.651a3.752,3.752,0,0,1,2.667,3.738c0,2.309-1.932,4.367-5.333,4.367A7.9,7.9,0,0,1,83.049,266.057Z" style="fill:#b2b2b2"/><path d="M95.732,254.11h3.612v13.648H95.732Z" style="fill:#b2b2b2"/><path d="M101.78,261.039c0-4.577,3.15-7.181,6.8-7.181a6.155,6.155,0,0,1,4.451,1.806l-1.889,2.31a3.417,3.417,0,0,0-2.436-1.008c-1.848,0-3.233,1.47-3.233,3.947,0,2.562,1.133,3.989,3.569,3.989a2.046,2.046,0,0,0,1.05-.252v-1.889h-2.016v-2.94h5.207v6.509a6.892,6.892,0,0,1-4.619,1.68C104.846,268.01,101.78,265.7,101.78,261.039Z" style="fill:#b2b2b2"/><path d="M115.934,254.11h3.7l3.024,6.089,1.3,3.066h.084a49.018,49.018,0,0,1-.462-5.207V254.11h3.443v13.648h-3.695l-3.024-6.11L119,258.6h-.084a51.321,51.321,0,0,1,.461,5.207v3.947h-3.443Z" style="fill:#b2b2b2"/></g><g id="_3" data-name="3"><path d="M40.923,310.043l2.057-2.477a5.544,5.544,0,0,0,3.192,1.323c1.092,0,1.554-.357,1.554-.966,0-.651-.693-.861-1.848-1.323l-1.7-.714a4.033,4.033,0,0,1-2.75-3.8c0-2.331,2.1-4.241,5.081-4.241a6.563,6.563,0,0,1,4.535,1.826l-1.806,2.268a4.5,4.5,0,0,0-2.729-.987c-.882,0-1.428.315-1.428.924,0,.651.777.882,2.016,1.365l1.658.651a3.75,3.75,0,0,1,2.667,3.737c0,2.309-1.932,4.367-5.333,4.367A7.9,7.9,0,0,1,40.923,310.043Z" style="fill:#a4a4a4"/><path d="M53.019,305.025c0-4.577,3.149-7.18,6.592-7.18a6.028,6.028,0,0,1,4.242,1.8l-1.89,2.31a3.33,3.33,0,0,0-2.268-1.008c-1.595,0-2.981,1.47-2.981,3.947,0,2.562,1.176,3.99,2.939,3.99a3.408,3.408,0,0,0,2.478-1.176l1.89,2.267A5.757,5.757,0,0,1,59.527,312C56.042,312,53.019,309.687,53.019,305.025Z" style="fill:#a4a4a4"/><path d="M65.913,298.1h3.611v13.647H65.913Z" style="fill:#a4a4a4"/><path d="M72.548,298.1h8.819v3.023H76.16v2.142h4.451v3.023H76.16v2.436h5.417v3.023H72.548Z" style="fill:#a4a4a4"/><path d="M84.225,298.1h3.7l3.023,6.089,1.3,3.065h.084a48.994,48.994,0,0,1-.462-5.207V298.1h3.444v13.647h-3.7l-3.023-6.11-1.3-3.044h-.084a51.056,51.056,0,0,1,.462,5.207v3.947H84.225Z" style="fill:#a4a4a4"/><path d="M100.94,301.12H97.329V298.1h10.834v3.023h-3.612v10.624H100.94Z" style="fill:#a4a4a4"/><path d="M110.18,298.1h3.612v13.647H110.18Z" style="fill:#a4a4a4"/><path d="M116.816,298.1h8.9v3.023h-5.291v2.6h4.535v3.023h-4.535v5h-3.612Z" style="fill:#a4a4a4"/><path d="M128.072,298.1h3.612v13.647h-3.612Z" style="fill:#a4a4a4"/><path d="M134.12,305.025c0-4.577,3.15-7.18,6.593-7.18a6.025,6.025,0,0,1,4.241,1.8l-1.89,2.31a3.326,3.326,0,0,0-2.267-1.008c-1.6,0-2.982,1.47-2.982,3.947,0,2.562,1.176,3.99,2.94,3.99a3.4,3.4,0,0,0,2.477-1.176l1.89,2.267A5.755,5.755,0,0,1,140.629,312C137.144,312,134.12,309.687,134.12,305.025Z" style="fill:#a4a4a4"/><path d="M73.788,323.3h5.165c2.939,0,5.459,1.008,5.459,4.409,0,3.3-2.52,4.661-5.459,4.661H77.4v4.577H73.788Zm4.913,6.215c1.427,0,2.183-.63,2.183-1.806s-.756-1.554-2.183-1.554H77.4v3.36Zm-.4,1.91,2.435-2.393,4.43,7.915H81.136Z" style="fill:#a4a4a4"/><path d="M85.968,333.249c0-4.619,6.425-4.409,6.425-6.971,0-.588-.273-.882-.8-.882-.567,0-1.071.462-1.071,1.344,0,2.016,3,4.787,5.858,6.362a9.6,9.6,0,0,0,3.191,1.2l-.84,2.9a12.811,12.811,0,0,1-4.514-1.826c-3.59-2.247-6.656-5.963-6.656-8.63a3.713,3.713,0,0,1,3.948-3.695c2.183,0,3.611,1.26,3.611,3.233,0,3.7-5.753,4.451-5.753,6.761,0,.84.672,1.428,1.764,1.428a4.338,4.338,0,0,0,2.729-1.3,8.711,8.711,0,0,0,2.394-4.073h3.275a14.88,14.88,0,0,1-3.191,5.669,7.444,7.444,0,0,1-5.669,2.435C87.5,337.2,85.968,335.307,85.968,333.249Z" style="fill:#a4a4a4"/><path d="M101.507,323.3h4.032c4.157,0,7.012,1.932,7.012,6.761s-2.855,6.886-6.8,6.886h-4.242Zm3.822,10.75c1.973,0,3.527-.8,3.527-3.989s-1.554-3.864-3.527-3.864h-.21v7.853Z" style="fill:#a4a4a4"/></g><g id="_4" data-name="4"><path d="M64.716,372.794h3.611v10.624h5.165v3.024H64.716Z" style="fill:#b2b2b2"/><path d="M75.846,372.794h8.818v3.024H79.457v2.141h4.451v3.024H79.457v2.435h5.417v3.024H75.846Z" style="fill:#b2b2b2"/><path d="M86.934,379.723c0-4.577,3.149-7.181,6.8-7.181a6.156,6.156,0,0,1,4.451,1.806l-1.89,2.31a3.414,3.414,0,0,0-2.435-1.008c-1.848,0-3.234,1.47-3.234,3.947,0,2.562,1.134,3.989,3.57,3.989a2.046,2.046,0,0,0,1.05-.252v-1.889H93.233v-2.94H98.44v6.509a6.894,6.894,0,0,1-4.619,1.68C90,386.694,86.934,384.384,86.934,379.723Z" style="fill:#b2b2b2"/><path d="M103.313,372.794h4.368l4.157,13.648h-3.821l-1.554-6.635c-.336-1.3-.672-2.96-1.008-4.325h-.084c-.294,1.386-.63,3.023-.966,4.325l-1.553,6.635h-3.7Zm-1.175,7.958h6.676v2.792h-6.676Z" style="fill:#b2b2b2"/><path d="M112.932,372.794h3.611v10.624h5.165v3.024h-8.776Z" style="fill:#b2b2b2"/></g><g id="_5" data-name="5"><path d="M43.162,425.651h3.745l3.565,11.7H47.2l-1.332-5.69c-.288-1.116-.576-2.539-.864-3.709h-.073c-.252,1.189-.54,2.593-.828,3.709l-1.332,5.69H39.6Zm-1.009,6.825h5.726v2.394H42.153Z" style="fill:#a4a4a4"/><path d="M50.9,431.593c0-3.925,2.7-6.157,5.654-6.157a5.164,5.164,0,0,1,3.637,1.548l-1.621,1.98a2.854,2.854,0,0,0-1.944-.864c-1.369,0-2.557,1.26-2.557,3.385,0,2.2,1.008,3.421,2.521,3.421a2.921,2.921,0,0,0,2.124-1.008l1.621,1.945a4.937,4.937,0,0,1-3.853,1.728C53.494,437.571,50.9,435.59,50.9,431.593Z" style="fill:#a4a4a4"/><path d="M60.729,431.593c0-3.925,2.7-6.157,5.654-6.157a5.164,5.164,0,0,1,3.637,1.548l-1.621,1.98a2.854,2.854,0,0,0-1.944-.864c-1.369,0-2.557,1.26-2.557,3.385,0,2.2,1.008,3.421,2.521,3.421a2.919,2.919,0,0,0,2.124-1.008l1.621,1.945a4.937,4.937,0,0,1-3.853,1.728C63.322,437.571,60.729,435.59,60.729,431.593Z" style="fill:#a4a4a4"/><path d="M70.558,431.449c0-3.853,2.2-6.013,5.437-6.013s5.438,2.178,5.438,6.013c0,3.853-2.2,6.122-5.438,6.122S70.558,435.3,70.558,431.449Zm7.706,0c0-2.124-.865-3.349-2.269-3.349s-2.268,1.225-2.268,3.349.864,3.457,2.268,3.457S78.264,433.574,78.264,431.449Z" style="fill:#a4a4a4"/><path d="M83.445,431.7v-6.05h3.1v6.411c0,2.088.54,2.844,1.765,2.844s1.8-.756,1.8-2.844v-6.411H93.1v6.05c0,4-1.513,5.87-4.789,5.87S83.445,435.7,83.445,431.7Z" style="fill:#a4a4a4"/><path d="M95.613,425.651h3.169l2.593,5.222,1.116,2.629h.072a42.055,42.055,0,0,1-.4-4.465v-3.386h2.953v11.7h-3.169l-2.593-5.24-1.116-2.61H98.17a43.774,43.774,0,0,1,.4,4.465v3.385H95.613Z" style="fill:#a4a4a4"/><path d="M109.941,428.244h-3.1v-2.593h9.291v2.593h-3.1v9.111h-3.1Z" style="fill:#a4a4a4"/><path d="M117.861,425.651h3.1v11.7h-3.1Z" style="fill:#a4a4a4"/><path d="M123.549,425.651h3.169l2.593,5.222,1.116,2.629h.072a42.055,42.055,0,0,1-.4-4.465v-3.386h2.953v11.7h-3.169l-2.593-5.24-1.116-2.61h-.073a43.487,43.487,0,0,1,.4,4.465v3.385h-2.953Z" style="fill:#a4a4a4"/><path d="M135.141,431.593c0-3.925,2.7-6.157,5.834-6.157a5.282,5.282,0,0,1,3.817,1.548l-1.621,1.98a2.929,2.929,0,0,0-2.088-.864c-1.585,0-2.773,1.26-2.773,3.385,0,2.2.972,3.421,3.061,3.421a1.754,1.754,0,0,0,.9-.216v-1.62h-1.729v-2.521h4.466v5.582a5.913,5.913,0,0,1-3.961,1.44C137.77,437.571,135.141,435.59,135.141,431.593Z" style="fill:#a4a4a4"/><path d="M79.27,447.251h3.745l3.565,11.7H83.3l-1.333-5.689c-.288-1.117-.576-2.539-.864-3.71h-.072c-.252,1.189-.54,2.593-.828,3.71l-1.333,5.689H75.7Zm-1.009,6.825h5.726v2.394H78.261Z" style="fill:#a4a4a4"/><path d="M87.513,447.251h3.169l2.592,5.222,1.117,2.629h.072a42.023,42.023,0,0,1-.4-4.465v-3.386H97.02v11.7H93.851l-2.593-5.24L90.142,451.1h-.073a43.841,43.841,0,0,1,.4,4.466v3.385H87.513Z" style="fill:#a4a4a4"/><path d="M99.609,447.251h3.457c3.565,0,6.014,1.657,6.014,5.8s-2.449,5.906-5.834,5.906H99.609Zm3.277,9.219c1.692,0,3.025-.684,3.025-3.421s-1.333-3.313-3.025-3.313h-.18v6.734Z" style="fill:#a4a4a4"/><path d="M34.72,468.852h4.213c2.449,0,4.429.612,4.429,2.917a2.78,2.78,0,0,1-1.476,2.52v.072A2.667,2.667,0,0,1,43.9,477.1c0,2.413-2.088,3.457-4.609,3.457H34.72Zm4.141,4.573c1.008,0,1.476-.468,1.476-1.188s-.468-1.008-1.476-1.008H37.816v2.2Zm.216,4.754c1.224,0,1.8-.433,1.8-1.3s-.576-1.188-1.8-1.188H37.816v2.485Z" style="fill:#a4a4a4"/><path d="M45.231,474.649c0-3.853,2.2-6.013,5.438-6.013s5.438,2.178,5.438,6.013c0,3.853-2.2,6.122-5.438,6.122S45.231,478.5,45.231,474.649Zm7.707,0c0-2.124-.864-3.349-2.269-3.349s-2.269,1.225-2.269,3.349.865,3.457,2.269,3.457S52.938,476.774,52.938,474.649Z" style="fill:#a4a4a4"/><path d="M57.688,474.649c0-3.853,2.2-6.013,5.437-6.013s5.437,2.178,5.437,6.013c0,3.853-2.2,6.122-5.437,6.122S57.688,478.5,57.688,474.649Zm7.706,0c0-2.124-.865-3.349-2.269-3.349s-2.269,1.225-2.269,3.349.865,3.457,2.269,3.457S65.394,476.774,65.394,474.649Z" style="fill:#a4a4a4"/><path d="M70.647,468.852h3.1v4.357h.072l2.953-4.357h3.385l-3.493,4.753,4.177,6.95H77.453l-2.593-4.5-1.116,1.584v2.917h-3.1Z" style="fill:#a4a4a4"/><path d="M81.951,468.852h3.1v4.357h.072l2.953-4.357h3.385l-3.493,4.753,4.177,6.95H88.757l-2.592-4.5-1.117,1.584v2.917h-3.1Z" style="fill:#a4a4a4"/><path d="M93.255,468.852h7.562v2.592H96.352v1.837h3.817v2.593H96.352v2.088H101v2.593H93.255Z" style="fill:#a4a4a4"/><path d="M103.263,468.852h7.562v2.592h-4.466v1.837h3.818v2.593h-3.818v2.088h4.646v2.593h-7.742Z" style="fill:#a4a4a4"/><path d="M113.271,468.852h4.285c2.557,0,4.754.936,4.754,3.889,0,2.863-2.233,4.105-4.682,4.105h-1.26v3.709h-3.1Zm4.213,5.545c1.224,0,1.8-.612,1.8-1.656s-.684-1.441-1.873-1.441h-1.044v3.1Z" style="fill:#a4a4a4"/><path d="M124.215,468.852h3.1v11.7h-3.1Z" style="fill:#a4a4a4"/><path d="M129.9,468.852h3.169l2.593,5.221,1.116,2.629h.073a41.786,41.786,0,0,1-.4-4.465v-3.385h2.953v11.7H136.24l-2.593-5.24-1.116-2.61h-.072a43.774,43.774,0,0,1,.4,4.465v3.385H129.9Z" style="fill:#a4a4a4"/><path d="M141.494,474.793c0-3.925,2.7-6.157,5.834-6.157a5.282,5.282,0,0,1,3.818,1.548l-1.621,1.981a2.93,2.93,0,0,0-2.089-.865c-1.584,0-2.773,1.261-2.773,3.386,0,2.2.973,3.42,3.061,3.42a1.77,1.77,0,0,0,.9-.215V476.27H146.9v-2.521h4.465v5.582a5.911,5.911,0,0,1-3.961,1.44C144.123,480.771,141.494,478.791,141.494,474.793Z" style="fill:#a4a4a4"/></g><g id="_6" data-name="6"><path d="M36.518,538.386h4.161l3.961,13H41l-1.48-6.322c-.32-1.24-.641-2.82-.96-4.121h-.08c-.28,1.321-.6,2.881-.921,4.121l-1.48,6.322H32.557Zm-1.12,7.582h6.361v2.66H35.4Z" style="fill:#b2b2b2"/><path d="M45.678,538.386h3.841c3.96,0,6.681,1.841,6.681,6.441s-2.721,6.562-6.482,6.562h-4.04Zm3.64,10.242c1.881,0,3.361-.76,3.361-3.8s-1.48-3.681-3.361-3.681h-.2v7.482Z" style="fill:#b2b2b2"/><path d="M56.677,538.386h3.641l1.36,5.681c.361,1.38.6,2.721.961,4.121h.08c.36-1.4.62-2.741.96-4.121L65,538.386H68.52l-3.841,13H60.518Z" style="fill:#b2b2b2"/><path d="M69.558,538.386h8.4v2.881H73v2.04H77.24v2.881H73v2.32H78.16v2.881h-8.6Z" style="fill:#b2b2b2"/><path d="M80.678,538.386H85.6c2.8,0,5.2.96,5.2,4.2,0,3.141-2.4,4.44-5.2,4.44H84.118v4.362h-3.44Zm4.68,5.922c1.361,0,2.081-.6,2.081-1.721s-.72-1.481-2.081-1.481h-1.24v3.2Zm-.379,1.82,2.32-2.281,4.221,7.542H87.679Z" style="fill:#b2b2b2"/><path d="M95.358,541.267H91.917v-2.881H102.24v2.881H98.8v10.122H95.358Z" style="fill:#b2b2b2"/><path d="M104.158,538.386h3.44v13h-3.44Z" style="fill:#b2b2b2"/><path d="M109.677,549.769l1.961-2.361a5.28,5.28,0,0,0,3.04,1.26c1.041,0,1.481-.34,1.481-.92,0-.62-.66-.82-1.761-1.261l-1.62-.679a3.843,3.843,0,0,1-2.621-3.621c0-2.221,2-4.041,4.842-4.041a6.249,6.249,0,0,1,4.32,1.74l-1.72,2.161a4.288,4.288,0,0,0-2.6-.941c-.841,0-1.361.3-1.361.88,0,.62.74.841,1.921,1.3l1.58.62a3.574,3.574,0,0,1,2.54,3.561c0,2.2-1.84,4.161-5.081,4.161A7.539,7.539,0,0,1,109.677,549.769Z" style="fill:#b2b2b2"/><path d="M121.757,538.386H125.2v13h-3.441Z" style="fill:#b2b2b2"/><path d="M128.078,538.386h3.52l2.881,5.8,1.24,2.919h.08a46.676,46.676,0,0,1-.44-4.961v-3.76h3.281v13h-3.521l-2.881-5.822-1.24-2.9h-.08a48.639,48.639,0,0,1,.44,4.961v3.761h-3.28Z" style="fill:#b2b2b2"/><path d="M140.958,544.987c0-4.361,3-6.841,6.481-6.841a5.868,5.868,0,0,1,4.241,1.72l-1.8,2.2a3.258,3.258,0,0,0-2.32-.96c-1.761,0-3.081,1.4-3.081,3.761,0,2.441,1.08,3.8,3.4,3.8a1.948,1.948,0,0,0,1-.24v-1.8h-1.921v-2.8h4.961v6.2a6.565,6.565,0,0,1-4.4,1.6C143.878,551.629,140.958,549.429,140.958,544.987Z" style="fill:#b2b2b2"/><path d="M77.758,562.386h4.161l3.96,13h-3.64l-1.481-6.322c-.32-1.24-.64-2.82-.96-4.121h-.08c-.28,1.321-.6,2.881-.92,4.121l-1.48,6.322H73.8Zm-1.12,7.582H83v2.66H76.638Z" style="fill:#b2b2b2"/><path d="M86.917,562.386h3.521l2.881,5.8,1.24,2.919h.08a46.676,46.676,0,0,1-.44-4.961v-3.76h3.28v13h-3.52l-2.881-5.822-1.24-2.9h-.08a48.639,48.639,0,0,1,.44,4.961v3.761H86.917Z" style="fill:#b2b2b2"/><path d="M100.357,562.386H104.2c3.961,0,6.681,1.841,6.681,6.441s-2.72,6.562-6.481,6.562h-4.041ZM104,572.628c1.88,0,3.361-.76,3.361-3.8s-1.481-3.681-3.361-3.681h-.2v7.482Z" style="fill:#b2b2b2"/><path d="M54.6,586.386h4.921c2.8,0,5.2.96,5.2,4.2,0,3.141-2.4,4.44-5.2,4.44h-1.48v4.362H54.6Zm4.681,5.922c1.36,0,2.08-.6,2.08-1.721s-.72-1.481-2.08-1.481h-1.24v3.2Zm-.38,1.82,2.32-2.281,4.221,7.542H61.6Z" style="fill:#b2b2b2"/><path d="M67.2,586.386h8.4v2.881H70.637v2.04h4.241v2.881H70.637v2.32H75.8v2.881H67.2Z" style="fill:#b2b2b2"/><path d="M78.317,586.386h3.44v10.122h4.922v2.881H78.317Z" style="fill:#b2b2b2"/><path d="M91.038,586.386H95.2l3.96,13h-3.64l-1.481-6.322c-.32-1.24-.64-2.82-.96-4.121H93c-.28,1.321-.6,2.881-.92,4.121l-1.48,6.322H87.077Zm-1.121,7.582h6.362v2.66H89.917Z" style="fill:#b2b2b2"/><path d="M101.278,589.267H97.837v-2.881h10.322v2.881h-3.441v10.122h-3.44Z" style="fill:#b2b2b2"/><path d="M110.077,586.386h8.4v2.881h-4.961v2.04h4.241v2.881h-4.241v2.32h5.161v2.881h-8.6Z" style="fill:#b2b2b2"/><path d="M121.2,586.386h3.841c3.961,0,6.681,1.841,6.681,6.441s-2.72,6.562-6.481,6.562H121.2Zm3.641,10.242c1.88,0,3.361-.76,3.361-3.8s-1.481-3.681-3.361-3.681h-.2v7.482Z" style="fill:#b2b2b2"/><path d="M50.377,621.769l1.961-2.361a5.28,5.28,0,0,0,3.04,1.26c1.041,0,1.481-.34,1.481-.92,0-.62-.66-.82-1.76-1.261l-1.621-.679a3.844,3.844,0,0,1-2.621-3.621c0-2.221,2-4.041,4.842-4.041a6.253,6.253,0,0,1,4.321,1.74L58.3,614.047a4.285,4.285,0,0,0-2.6-.941c-.841,0-1.361.3-1.361.88,0,.62.741.841,1.921,1.3l1.58.62a3.574,3.574,0,0,1,2.54,3.561c0,2.2-1.84,4.161-5.081,4.161A7.539,7.539,0,0,1,50.377,621.769Z" style="fill:#b2b2b2"/><path d="M62.458,610.386h8.4v2.881H65.9v2.04h4.241v2.881H65.9v2.32h5.161v2.881h-8.6Z" style="fill:#b2b2b2"/><path d="M73.578,610.386H78.5c2.8,0,5.2.96,5.2,4.2,0,3.141-2.4,4.44-5.2,4.44H77.018v4.362h-3.44Zm4.68,5.922c1.361,0,2.081-.6,2.081-1.721s-.72-1.481-2.081-1.481h-1.24v3.2Zm-.38,1.82,2.321-2.281,4.221,7.542H80.579Z" style="fill:#b2b2b2"/><path d="M84.137,610.386h3.641l1.36,5.681c.361,1.38.6,2.721.961,4.121h.08c.36-1.4.62-2.741.96-4.121l1.32-5.681H95.98l-3.841,13H87.978Z" style="fill:#b2b2b2"/><path d="M97.018,610.386h3.44v13h-3.44Z" style="fill:#b2b2b2"/><path d="M102.777,616.987c0-4.361,3-6.841,6.282-6.841a5.737,5.737,0,0,1,4.04,1.72l-1.8,2.2a3.176,3.176,0,0,0-2.16-.96c-1.521,0-2.841,1.4-2.841,3.761,0,2.441,1.12,3.8,2.8,3.8a3.245,3.245,0,0,0,2.36-1.12l1.8,2.16a5.484,5.484,0,0,1-4.28,1.921C105.658,623.629,102.777,621.429,102.777,616.987Z" style="fill:#b2b2b2"/><path d="M115.058,610.386h8.4v2.881H118.5v2.04h4.241v2.881H118.5v2.32h5.161v2.881h-8.6Z" style="fill:#b2b2b2"/><path d="M125.377,621.769l1.96-2.361a5.283,5.283,0,0,0,3.041,1.26c1.04,0,1.48-.34,1.48-.92,0-.62-.66-.82-1.76-1.261l-1.62-.679a3.843,3.843,0,0,1-2.621-3.621c0-2.221,2-4.041,4.841-4.041a6.252,6.252,0,0,1,4.321,1.74l-1.72,2.161a4.29,4.29,0,0,0-2.6-.941c-.84,0-1.36.3-1.36.88,0,.62.74.841,1.92,1.3l1.58.62a3.573,3.573,0,0,1,2.541,3.561c0,2.2-1.84,4.161-5.081,4.161A7.537,7.537,0,0,1,125.377,621.769Z" style="fill:#b2b2b2"/></g><g id="_7" data-name="7"><path d="M32.859,691.856l2.058-2.478a5.539,5.539,0,0,0,3.191,1.323c1.092,0,1.554-.356,1.554-.966,0-.65-.693-.861-1.848-1.322l-1.7-.715a4.033,4.033,0,0,1-2.75-3.8c0-2.331,2.1-4.241,5.081-4.241a6.563,6.563,0,0,1,4.535,1.826l-1.806,2.268a4.5,4.5,0,0,0-2.729-.986c-.882,0-1.428.314-1.428.923,0,.651.777.882,2.016,1.366l1.658.65a3.751,3.751,0,0,1,2.667,3.737c0,2.31-1.932,4.368-5.333,4.368A7.9,7.9,0,0,1,32.859,691.856Z" style="fill:#a4a4a4"/><path d="M45.542,679.909h5c2.981,0,5.543,1.092,5.543,4.535,0,3.338-2.6,4.787-5.459,4.787h-1.47v4.326H45.542Zm4.914,6.467c1.427,0,2.1-.714,2.1-1.932s-.8-1.679-2.183-1.679H49.154v3.611Z" style="fill:#a4a4a4"/><path d="M58.311,679.909h8.818v3.024H61.922v2.141h4.451V688.1H61.922v2.435h5.417v3.024H58.311Z" style="fill:#a4a4a4"/><path d="M69.4,686.838c0-4.577,3.15-7.181,6.593-7.181a6.02,6.02,0,0,1,4.241,1.806l-1.889,2.309a3.333,3.333,0,0,0-2.268-1.007c-1.6,0-2.981,1.469-2.981,3.947,0,2.561,1.176,3.989,2.939,3.989a3.408,3.408,0,0,0,2.478-1.176l1.889,2.268a5.754,5.754,0,0,1-4.493,2.016C72.422,693.809,69.4,691.5,69.4,686.838Z" style="fill:#a4a4a4"/><path d="M82.292,679.909H85.9v13.648H82.292Z" style="fill:#a4a4a4"/><path d="M91.364,679.909h4.367l4.157,13.648H96.067l-1.554-6.635c-.336-1.3-.672-2.96-1.008-4.325h-.084c-.294,1.385-.629,3.023-.965,4.325L90.9,693.557h-3.7Zm-1.176,7.957h6.677v2.793H90.188Z" style="fill:#a4a4a4"/><path d="M100.982,679.909h3.612v10.624h5.165v3.024h-8.777Z" style="fill:#a4a4a4"/><path d="M112.112,679.909h3.612v13.648h-3.612Z" style="fill:#a4a4a4"/><path d="M117.908,691.373l5.585-8.44h-5.039v-3.024h9.49v2.184l-5.585,8.44h5.627v3.024H117.908Z" style="fill:#a4a4a4"/><path d="M129.92,679.909h8.818v3.024h-5.207v2.141h4.451V688.1h-4.451v2.435h5.417v3.024H129.92Z" style="fill:#a4a4a4"/><path d="M141.6,679.909h4.031c4.158,0,7.013,1.932,7.013,6.761s-2.855,6.887-6.8,6.887H141.6Zm3.821,10.75c1.974,0,3.528-.8,3.528-3.989s-1.554-3.863-3.528-3.863h-.209v7.852Z" style="fill:#a4a4a4"/><path d="M58.73,705.109h4.032c4.157,0,7.012,1.932,7.012,6.761s-2.855,6.887-6.8,6.887H58.73Zm3.822,10.75c1.973,0,3.527-.8,3.527-3.989s-1.554-3.863-3.527-3.863h-.21v7.852Z" style="fill:#a4a4a4"/><path d="M72.212,705.109h8.819v3.024H75.824v2.141h4.451V713.3H75.824v2.435h5.417v3.024H72.212Z" style="fill:#a4a4a4"/><path d="M83.048,717.056l2.058-2.477A5.549,5.549,0,0,0,88.3,715.9c1.092,0,1.554-.357,1.554-.965,0-.652-.693-.861-1.848-1.324l-1.7-.713a4.032,4.032,0,0,1-2.751-3.8c0-2.33,2.1-4.242,5.081-4.242a6.554,6.554,0,0,1,4.535,1.828l-1.805,2.267a4.5,4.5,0,0,0-2.73-.987c-.882,0-1.427.315-1.427.924,0,.651.776.882,2.015,1.364l1.659.651a3.751,3.751,0,0,1,2.666,3.738c0,2.309-1.931,4.367-5.333,4.367A7.9,7.9,0,0,1,83.048,717.056Z" style="fill:#a4a4a4"/><path d="M95.732,705.109h3.612v13.648H95.732Z" style="fill:#a4a4a4"/><path d="M101.78,712.038c0-4.577,3.15-7.181,6.8-7.181a6.155,6.155,0,0,1,4.451,1.806l-1.889,2.31a3.417,3.417,0,0,0-2.436-1.008c-1.848,0-3.233,1.47-3.233,3.947,0,2.562,1.133,3.989,3.569,3.989a2.046,2.046,0,0,0,1.05-.252V713.76h-2.016v-2.94h5.207v6.509a6.892,6.892,0,0,1-4.619,1.68C104.846,719.009,101.78,716.7,101.78,712.038Z" style="fill:#a4a4a4"/><path d="M115.934,705.109h3.7l3.024,6.089,1.3,3.066h.084a49.018,49.018,0,0,1-.462-5.207v-3.948h3.443v13.648h-3.695l-3.024-6.11L119,709.6h-.084a51.321,51.321,0,0,1,.461,5.207v3.947h-3.443Z" style="fill:#a4a4a4"/></g><g id="_8" data-name="8"><path d="M65.557,772.607h4.161l3.961,13H70.038l-1.48-6.321c-.32-1.24-.641-2.82-.96-4.121h-.08c-.28,1.32-.6,2.881-.921,4.121l-1.48,6.321H61.6Zm-1.12,7.582H70.8v2.661H64.437Z" style="fill:#b2b2b2"/><path d="M74.717,772.607h4.921c2.8,0,5.2.96,5.2,4.2,0,3.14-2.4,4.44-5.2,4.44H78.157v4.361h-3.44Zm4.68,5.922c1.361,0,2.081-.6,2.081-1.72s-.72-1.481-2.081-1.481h-1.24v3.2Zm-.379,1.821,2.32-2.282,4.221,7.542H81.718Z" style="fill:#b2b2b2"/><path d="M86.757,779.209c0-4.361,3-6.842,6.281-6.842a5.74,5.74,0,0,1,4.041,1.721l-1.8,2.2a3.176,3.176,0,0,0-2.16-.96c-1.52,0-2.841,1.4-2.841,3.761,0,2.44,1.12,3.8,2.8,3.8a3.245,3.245,0,0,0,2.36-1.12l1.8,2.16a5.486,5.486,0,0,1-4.281,1.921C89.637,785.851,86.757,783.65,86.757,779.209Z" style="fill:#b2b2b2"/><path d="M99.037,772.607h3.44v4.841h3.881v-4.841H109.8v13h-3.441v-5.161h-3.881v5.161h-3.44Z" style="fill:#b2b2b2"/><path d="M112.676,772.607h3.441v13h-3.441Z" style="fill:#b2b2b2"/><path d="M118.437,779.329h5.041v2.4h-5.041Z" style="fill:#b2b2b2"/><path d="M50.237,799.488H46.8v-2.881H57.119v2.881H53.678V809.61H50.237Z" style="fill:#b2b2b2"/><path d="M59.037,796.607h8.4v2.881H62.477v2.04h4.241v2.881H62.477v2.32h5.161v2.881h-8.6Z" style="fill:#b2b2b2"/><path d="M69.6,803.209c0-4.361,3-6.842,6.281-6.842a5.736,5.736,0,0,1,4.04,1.721l-1.8,2.2a3.176,3.176,0,0,0-2.16-.96c-1.52,0-2.841,1.4-2.841,3.761,0,2.44,1.12,3.8,2.8,3.8a3.245,3.245,0,0,0,2.36-1.12l1.8,2.16a5.486,5.486,0,0,1-4.281,1.921C72.477,809.851,69.6,807.65,69.6,803.209Z" style="fill:#b2b2b2"/><path d="M84.157,799.488H80.716v-2.881H91.039v2.881H87.6V809.61H84.157Z" style="fill:#b2b2b2"/><path d="M92.876,803.329v-6.722h3.441v7.122c0,2.321.6,3.161,1.96,3.161s2-.84,2-3.161v-7.122H103.6v6.722c0,4.441-1.681,6.522-5.322,6.522S92.876,807.77,92.876,803.329Z" style="fill:#b2b2b2"/><path d="M106.4,796.607h4.921c2.8,0,5.2.96,5.2,4.2,0,3.14-2.4,4.44-5.2,4.44h-1.48v4.361H106.4Zm4.681,5.922c1.361,0,2.081-.6,2.081-1.72s-.72-1.481-2.081-1.481h-1.24v3.2Zm-.38,1.821,2.321-2.282,4.221,7.542H113.4Z" style="fill:#b2b2b2"/><path d="M121.117,796.607h4.161l3.96,13H125.6l-1.481-6.321c-.32-1.24-.64-2.82-.96-4.121h-.08c-.28,1.32-.6,2.881-.92,4.121l-1.48,6.321h-3.521ZM120,804.189h6.361v2.661H120Z" style="fill:#b2b2b2"/><path d="M130.277,796.607h3.44v10.122h4.922v2.881h-8.362Z" style="fill:#b2b2b2"/><path d="M77.757,820.607h4.161l3.961,13H82.238l-1.48-6.321c-.32-1.24-.64-2.82-.96-4.121h-.08c-.28,1.32-.6,2.881-.921,4.121l-1.48,6.321H73.8Zm-1.12,7.582H83v2.661H76.637Z" style="fill:#b2b2b2"/><path d="M86.917,820.607h3.521l2.88,5.8,1.241,2.92h.08a46.668,46.668,0,0,1-.441-4.961v-3.761h3.281v13H93.958l-2.88-5.821-1.241-2.9h-.08a48.634,48.634,0,0,1,.441,4.961v3.76H86.917Z" style="fill:#b2b2b2"/><path d="M100.357,820.607H104.2c3.961,0,6.681,1.841,6.681,6.442s-2.72,6.561-6.482,6.561h-4.04ZM104,830.85c1.88,0,3.36-.76,3.36-3.8s-1.48-3.681-3.36-3.681h-.2v7.482Z" style="fill:#b2b2b2"/><path d="M31.938,844.607h8.4v2.881H35.378v2.04h4.241v2.881H35.378v2.32h5.161v2.881h-8.6Z" style="fill:#b2b2b2"/><path d="M43.058,844.607h3.52l2.881,5.8,1.24,2.92h.08a46.676,46.676,0,0,1-.44-4.961v-3.761H53.62v13H50.1l-2.881-5.821-1.24-2.9H45.9a48.639,48.639,0,0,1,.44,4.961v3.76h-3.28Z" style="fill:#b2b2b2"/><path d="M55.938,851.209c0-4.361,3-6.842,6.48-6.842a5.869,5.869,0,0,1,4.242,1.721l-1.8,2.2a3.258,3.258,0,0,0-2.32-.96c-1.761,0-3.081,1.4-3.081,3.761,0,2.44,1.08,3.8,3.4,3.8a1.939,1.939,0,0,0,1-.241v-1.8H61.938v-2.8H66.9v6.2a6.572,6.572,0,0,1-4.4,1.6C58.858,857.851,55.938,855.65,55.938,851.209Z" style="fill:#b2b2b2"/><path d="M69.417,844.607h3.441v13H69.417Z" style="fill:#b2b2b2"/><path d="M75.737,844.607h3.521l2.881,5.8,1.24,2.92h.08a46.676,46.676,0,0,1-.44-4.961v-3.761H86.3v13h-3.52L79.9,851.789l-1.24-2.9h-.08a48.639,48.639,0,0,1,.44,4.961v3.76H75.737Z" style="fill:#b2b2b2"/><path d="M89.177,844.607h8.4v2.881H92.618v2.04h4.241v2.881H92.618v2.32h5.161v2.881h-8.6Z" style="fill:#b2b2b2"/><path d="M100.3,844.607h8.4v2.881h-4.961v2.04h4.241v2.881h-4.241v2.32H108.9v2.881h-8.6Z" style="fill:#b2b2b2"/><path d="M111.417,844.607h4.921c2.8,0,5.2.96,5.2,4.2,0,3.14-2.4,4.44-5.2,4.44h-1.481v4.361h-3.44Zm4.681,5.922c1.36,0,2.08-.6,2.08-1.72s-.72-1.481-2.08-1.481h-1.241v3.2Zm-.38,1.821,2.32-2.282,4.221,7.542h-3.841Z" style="fill:#b2b2b2"/><path d="M124.017,844.607h3.441v13h-3.441Z" style="fill:#b2b2b2"/><path d="M130.337,844.607h3.52l2.881,5.8,1.241,2.92h.08a46.407,46.407,0,0,1-.441-4.961v-3.761H140.9v13h-3.521l-2.88-5.821-1.241-2.9h-.08a48.634,48.634,0,0,1,.441,4.961v3.76h-3.281Z" style="fill:#b2b2b2"/><path d="M143.217,851.209c0-4.361,3-6.842,6.481-6.842a5.865,5.865,0,0,1,4.241,1.721l-1.8,2.2a3.26,3.26,0,0,0-2.321-.96c-1.76,0-3.081,1.4-3.081,3.761,0,2.44,1.08,3.8,3.4,3.8a1.939,1.939,0,0,0,1-.241v-1.8h-1.92v-2.8h4.961v6.2a6.568,6.568,0,0,1-4.4,1.6C146.137,857.851,143.217,855.65,143.217,851.209Z" style="fill:#b2b2b2"/></g><g id="_9" data-name="9"><path d="M66.823,929.988c0-3.853,2.2-6.014,5.438-6.014s5.437,2.178,5.437,6.014c0,3.853-2.2,6.121-5.437,6.121S66.823,933.841,66.823,929.988Zm7.706,0c0-2.125-.864-3.349-2.268-3.349s-2.269,1.224-2.269,3.349.864,3.457,2.269,3.457S74.529,932.112,74.529,929.988Z" style="fill:#a4a4a4"/><path d="M81.476,926.783h-3.1V924.19h9.29v2.593h-3.1v9.111h-3.1Z" style="fill:#a4a4a4"/><path d="M89.4,924.19h3.1v4.357h3.493V924.19h3.1v11.7h-3.1v-4.646H92.492v4.646H89.4Z" style="fill:#a4a4a4"/><path d="M101.671,924.19h7.562v2.593h-4.465v1.836h3.817v2.593h-3.817V933.3h4.645v2.593h-7.742Z" style="fill:#a4a4a4"/><path d="M111.679,924.19h4.429c2.521,0,4.682.865,4.682,3.781,0,2.827-2.161,4-4.682,4h-1.332v3.925h-3.1Zm4.213,5.33c1.224,0,1.873-.541,1.873-1.549s-.649-1.332-1.873-1.332h-1.116v2.881Zm-.342,1.638,2.089-2.053,3.8,6.789H117.98Z" style="fill:#a4a4a4"/><path d="M32.947,945.79h4.285c2.558,0,4.754.936,4.754,3.889,0,2.863-2.233,4.105-4.681,4.105H36.044v3.709h-3.1Zm4.214,5.545c1.224,0,1.8-.612,1.8-1.656s-.684-1.441-1.873-1.441H36.044v3.1Z" style="fill:#a4a4a4"/><path d="M43.891,945.79H48.32c2.521,0,4.682.864,4.682,3.78,0,2.827-2.161,4-4.682,4H46.988v3.925h-3.1Zm4.213,5.329c1.225,0,1.873-.54,1.873-1.549s-.648-1.332-1.873-1.332H46.988v2.881Zm-.342,1.639,2.089-2.053,3.8,6.788H50.193Z" style="fill:#a4a4a4"/><path d="M54.727,951.588c0-3.854,2.2-6.015,5.438-6.015s5.437,2.179,5.437,6.015c0,3.852-2.2,6.121-5.437,6.121S54.727,955.44,54.727,951.588Zm7.706,0c0-2.125-.864-3.35-2.268-3.35s-2.269,1.225-2.269,3.35.864,3.457,2.269,3.457S62.433,953.712,62.433,951.588Z" style="fill:#a4a4a4"/><path d="M67.687,945.79h7.634v2.593H70.784v2.232h3.888v2.593H70.784v4.285h-3.1Z" style="fill:#a4a4a4"/><path d="M77.334,945.79H84.9v2.593H80.431v1.836h3.818v2.593H80.431V954.9h4.646v2.593H77.334Z" style="fill:#a4a4a4"/><path d="M86.622,956.035l1.765-2.125a4.754,4.754,0,0,0,2.737,1.135c.936,0,1.332-.307,1.332-.829,0-.558-.594-.738-1.584-1.134l-1.459-.612a3.458,3.458,0,0,1-2.359-3.259c0-2,1.8-3.638,4.358-3.638A5.63,5.63,0,0,1,95.3,947.14l-1.549,1.945a3.851,3.851,0,0,0-2.34-.847c-.757,0-1.225.271-1.225.792,0,.559.667.757,1.729,1.171l1.422.558a3.218,3.218,0,0,1,2.287,3.205c0,1.98-1.657,3.745-4.574,3.745A6.779,6.779,0,0,1,86.622,956.035Z" style="fill:#a4a4a4"/><path d="M96.415,956.035l1.764-2.125a4.757,4.757,0,0,0,2.737,1.135c.936,0,1.333-.307,1.333-.829,0-.558-.595-.738-1.585-1.134l-1.458-.612a3.458,3.458,0,0,1-2.359-3.259c0-2,1.8-3.638,4.357-3.638a5.626,5.626,0,0,1,3.889,1.567l-1.549,1.945a3.851,3.851,0,0,0-2.34-.847c-.756,0-1.225.271-1.225.792,0,.559.667.757,1.729,1.171l1.422.558a3.217,3.217,0,0,1,2.287,3.205c0,1.98-1.656,3.745-4.573,3.745A6.779,6.779,0,0,1,96.415,956.035Z" style="fill:#a4a4a4"/><path d="M107.287,945.79h3.1v11.7h-3.1Z" style="fill:#a4a4a4"/><path d="M112.47,951.588c0-3.854,2.2-6.015,5.438-6.015s5.438,2.179,5.438,6.015c0,3.852-2.2,6.121-5.438,6.121S112.47,955.44,112.47,951.588Zm7.707,0c0-2.125-.865-3.35-2.269-3.35s-2.269,1.225-2.269,3.35.864,3.457,2.269,3.457S120.177,953.712,120.177,951.588Z" style="fill:#a4a4a4"/><path d="M125.43,945.79H128.6l2.593,5.222,1.116,2.628h.072a42.031,42.031,0,0,1-.4-4.465V945.79h2.953v11.7h-3.169l-2.593-5.239-1.116-2.611h-.072a43.825,43.825,0,0,1,.4,4.465v3.385H125.43Z" style="fill:#a4a4a4"/><path d="M139.615,945.79h3.745l3.565,11.7h-3.277l-1.332-5.689c-.288-1.116-.576-2.539-.864-3.709h-.073c-.252,1.188-.54,2.593-.828,3.709l-1.332,5.689H136.05Zm-1.008,6.823h5.726v2.4h-5.726Z" style="fill:#a4a4a4"/><path d="M147.858,945.79h3.1v9.11h4.429v2.593h-7.527Z" style="fill:#a4a4a4"/><path d="M80.269,967.391h3.745l3.566,11.7H84.3L82.97,973.4c-.288-1.116-.576-2.539-.864-3.709h-.072c-.252,1.188-.54,2.593-.828,3.709l-1.333,5.69H76.7Zm-1.008,6.823h5.726v2.395H79.261Z" style="fill:#a4a4a4"/><path d="M88.513,967.391h3.169l2.592,5.22,1.117,2.629h.072a42.008,42.008,0,0,1-.4-4.465v-3.384H98.02v11.7H94.851l-2.593-5.24-1.116-2.611h-.073a43.845,43.845,0,0,1,.4,4.466v3.385H88.513Z" style="fill:#a4a4a4"/><path d="M100.609,967.391h3.457c3.565,0,6.014,1.656,6.014,5.8s-2.449,5.906-5.834,5.906h-3.637Zm3.277,9.218c1.693,0,3.025-.684,3.025-3.421s-1.332-3.313-3.025-3.313h-.18v6.734Z" style="fill:#a4a4a4"/><path d="M51.812,991.583h-3.1V988.99h9.29v2.593h-3.1v9.11h-3.1Z" style="fill:#a4a4a4"/><path d="M59.731,988.99h7.562v2.593H62.828v1.836h3.817v2.593H62.828V998.1h4.645v2.592H59.731Z" style="fill:#a4a4a4"/><path d="M69.235,994.932c0-3.925,2.7-6.159,5.654-6.159a5.167,5.167,0,0,1,3.637,1.549L76.905,992.3a2.855,2.855,0,0,0-1.944-.865c-1.369,0-2.557,1.261-2.557,3.385,0,2.2,1.009,3.421,2.521,3.421a2.921,2.921,0,0,0,2.124-1.008l1.621,1.945a4.937,4.937,0,0,1-3.853,1.728C71.828,1000.909,69.235,998.929,69.235,994.932Z" style="fill:#a4a4a4"/><path d="M80.287,988.99h3.1v4.358h3.493V988.99h3.1v11.7h-3.1v-4.645H83.384v4.645h-3.1Z" style="fill:#a4a4a4"/><path d="M92.563,988.99h3.169l2.593,5.221,1.116,2.629h.072a42.031,42.031,0,0,1-.4-4.465V988.99h2.953v11.7H98.9l-2.593-5.239-1.116-2.611H95.12a43.82,43.82,0,0,1,.4,4.466v3.384H92.563Z" style="fill:#a4a4a4"/><path d="M104.659,988.99h3.1v11.7h-3.1Z" style="fill:#a4a4a4"/><path d="M109.842,994.932c0-3.925,2.7-6.159,5.654-6.159a5.167,5.167,0,0,1,3.637,1.549l-1.62,1.981a2.858,2.858,0,0,0-1.945-.865c-1.368,0-2.557,1.261-2.557,3.385,0,2.2,1.009,3.421,2.521,3.421a2.921,2.921,0,0,0,2.125-1.008l1.62,1.945a4.935,4.935,0,0,1-3.853,1.728C112.435,1000.909,109.842,998.929,109.842,994.932Z" style="fill:#a4a4a4"/><path d="M122.983,988.99h3.745l3.565,11.7h-3.277L125.684,995c-.288-1.116-.576-2.539-.864-3.709h-.072c-.252,1.187-.54,2.593-.829,3.709l-1.332,5.689h-3.169Zm-1.008,6.823H127.7v2.4h-5.726Z" style="fill:#a4a4a4"/><path d="M131.227,988.99h3.1V998.1h4.429v2.592h-7.526Z" style="fill:#a4a4a4"/></g></g><g id="label-icon" style="opacity:0.9"><g id="_1-2" data-name="1"><g id="Consult-Talk"><rect x="77.565" y="108.045" width="1.911" height="1.911" style="fill:#777"/><rect x="87.12" y="108.045" width="1.911" height="1.911" style="fill:#777"/><path d="M120.7,118.566l-3.733-.533a13.559,13.559,0,0,0-.628-1.529l2.259-3.012a.956.956,0,0,0-.089-1.249l-4.055-4.054a.945.945,0,0,0-.579-.271v-9.2a7.645,7.645,0,0,0,2.867-5.964,7.565,7.565,0,0,0-4.37-6.9.955.955,0,0,0-1.363.864v5.351l-1.912.638-1.911-.638V86.717a.956.956,0,0,0-1.363-.86,7.563,7.563,0,0,0-4.37,6.9,7.645,7.645,0,0,0,2.867,5.964v6.459h-2.867a.954.954,0,0,0-.946.82l-.618,4.327,1.892.271.5-3.507h4.077l.5,3.507a.955.955,0,0,0,.678.782,11.4,11.4,0,0,1,2.293.943.957.957,0,0,0,1.033-.074l2.83-2.121,2.882,2.882-2.126,2.829a.955.955,0,0,0-.074,1.033,11.4,11.4,0,0,1,.943,2.293.956.956,0,0,0,.782.679l3.507.5v4.076l-3.507.5a.955.955,0,0,0-.782.678,11.382,11.382,0,0,1-.943,2.294.955.955,0,0,0,.074,1.033l2.121,2.829-2.882,2.882-2.828-2.129a.957.957,0,0,0-1.033-.074,11.411,11.411,0,0,1-2.293.944.954.954,0,0,0-.678.781l-.5,3.509h-3.95v-4.041a10.562,10.562,0,0,0-.43-2.982A8.707,8.707,0,1,0,95.87,123.9c-.023-.009-.045-.021-.068-.029l-7.726-3.09v-1.469a10.587,10.587,0,0,0,3.324-2.662h2.409a2.867,2.867,0,0,0,2.867-2.867v-2.087A2.867,2.867,0,0,0,98.587,109v-2.867a2.868,2.868,0,0,0-1.911-2.691v-1.131a13.378,13.378,0,1,0-26.756,0v1.131a2.868,2.868,0,0,0-1.911,2.691V109a2.867,2.867,0,0,0,2.867,2.867h1.911c.061,0,.12-.01.18-.014a10.538,10.538,0,0,0,5.553,7.454v1.469l-7.726,3.09a10.461,10.461,0,0,0-6.607,9.76v8.819a.956.956,0,0,0,.955.956h36.312a.955.955,0,0,0,.955-.956v-2.867h4.778a.954.954,0,0,0,.946-.82l.533-3.733a13.3,13.3,0,0,0,1.529-.628l3.012,2.259a.956.956,0,0,0,1.249-.089l4.055-4.054a.956.956,0,0,0,.089-1.249l-2.259-3.012a13.37,13.37,0,0,0,.627-1.529l3.734-.533a.957.957,0,0,0,.819-.945v-5.734A.957.957,0,0,0,120.7,118.566ZM110.19,110.36c-.045-.022-.1-.036-.141-.057V98.49h-1.906v7.577l-.01-.068a.954.954,0,0,0-.946-.82h-.955V98.241a.953.953,0,0,0-.41-.784,5.733,5.733,0,0,1-1.43-7.981,5.793,5.793,0,0,1,.884-1v4.279a.955.955,0,0,0,.654.907l2.866.956a.96.96,0,0,0,.6,0l2.867-.956a.956.956,0,0,0,.654-.907V88.477a5.735,5.735,0,0,1,.456,8.1,5.793,5.793,0,0,1-1,.887.956.956,0,0,0-.41.781v10.792ZM97.632,122.379a6.735,6.735,0,1,1,3.184,5.677,10.429,10.429,0,0,0-2.494-2.749A6.528,6.528,0,0,1,97.632,122.379Zm-3.823-7.645h-1.16a10.4,10.4,0,0,0,.98-2.88c.06,0,.119.014.18.014h.956v1.911A.955.955,0,0,1,93.809,114.734ZM91.9,104.223a2.879,2.879,0,0,1-2.293-1.146l-1.72-2.294a.953.953,0,0,0-.644-.374.966.966,0,0,0-.718.2l-3.207,2.562a4.79,4.79,0,0,1-2.98,1.051H74.7v-.955a8.6,8.6,0,1,1,17.2,0ZM96.676,109a.956.956,0,0,1-.956.956H93.809v-4.778H95.72a.956.956,0,0,1,.956.955ZM83.3,90.845a11.48,11.48,0,0,1,11.467,11.467v.956h-.956a10.511,10.511,0,1,0-21.022,0h-.956v-.956A11.48,11.48,0,0,1,83.3,90.845ZM70.876,109.957A.956.956,0,0,1,69.92,109v-2.867a.956.956,0,0,1,.956-.955h1.911v4.778Zm3.822,0v-3.823h5.638a6.708,6.708,0,0,0,4.178-1.466l2.437-1.95,1.125,1.5a4.8,4.8,0,0,0,3.822,1.911v3.823a8.548,8.548,0,0,1-1.454,4.777H83.3v1.912h5.393A8.592,8.592,0,0,1,74.7,109.957Zm8.6,10.511a10.53,10.53,0,0,0,2.867-.407v1.362a2.867,2.867,0,0,1-5.734,0v-1.362A10.53,10.53,0,0,0,83.3,120.468Zm17.2,21.022H94.765V130.979H92.854V141.49H73.742V130.979H71.831V141.49H66.1v-7.863a8.561,8.561,0,0,1,5.406-7.986l7.227-2.89a4.748,4.748,0,0,0,9.134,0l7.227,2.89a8.559,8.559,0,0,1,5.406,7.986Z" style="fill:#777"/><rect x="103.365" y="109.001" width="1.911" height="1.911" style="fill:#777"/><rect x="103.365" y="133.846" width="1.911" height="1.911" style="fill:#777"/><rect x="112.148" y="130.208" width="1.911" height="1.911" transform="translate(-59.619 118.393) rotate(-45)" style="fill:#777"/><rect x="115.787" y="121.423" width="1.911" height="1.911" style="fill:#777"/><rect x="112.149" y="112.64" width="1.911" height="1.911" transform="translate(-47.197 113.248) rotate(-45)" style="fill:#777"/></g></g><g id="_2-2" data-name="2"><path d="M114.5,208.869H71.21a4.246,4.246,0,0,0-4.329,4.246V243.69a4.246,4.246,0,0,0,4.329,4.246H86.62l-1.385,6.795H83.33a2.548,2.548,0,1,0,0,5.1h19.047a2.548,2.548,0,1,0,0-5.1h-1.905l-1.385-6.795H114.5a4.246,4.246,0,0,0,4.329-4.246V213.115A4.246,4.246,0,0,0,114.5,208.869Zm-43.288,1.7H114.5a2.527,2.527,0,0,1,2.6,2.548v28.027H68.612V213.115A2.527,2.527,0,0,1,71.21,210.567Zm32.033,46.711a.811.811,0,0,1-.866.85H83.33a.85.85,0,1,1,0-1.7h19.047A.81.81,0,0,1,103.243,257.278Zm-4.5-2.547H86.967l1.385-6.795h9Zm15.757-8.493H71.21a2.527,2.527,0,0,1-2.6-2.548v-.85H117.1v.85A2.527,2.527,0,0,1,114.5,246.238Z" style="fill:#777"/><path d="M79.434,233.159a3.694,3.694,0,0,0,2.425,1.783,7.314,7.314,0,0,0,2.337.255,15.31,15.31,0,0,0,3.377-.425c1.3,2.888,3.116,4.671,5.281,4.671s3.982-1.783,5.281-4.671a22.912,22.912,0,0,0,3.376.425,10.934,10.934,0,0,0,2.338-.255,3.69,3.69,0,0,0,2.424-1.783c1.039-1.869,0-4.587-2.511-7.3,2.511-2.718,3.55-5.351,2.511-7.3a3.688,3.688,0,0,0-2.424-1.784,12.962,12.962,0,0,0-5.714.085c-1.3-2.8-3.2-4.586-5.281-4.586s-3.983,1.783-5.281,4.671a11.819,11.819,0,0,0-5.714-.085,3.693,3.693,0,0,0-2.425,1.784c-1.039,1.868,0,4.586,2.511,7.3-2.511,2.632-3.55,5.265-2.511,7.219Zm13.42,4.586c-1.212,0-2.511-1.274-3.55-3.4a25.242,25.242,0,0,0,3.55-1.274,25.184,25.184,0,0,0,3.549,1.274c-1.039,2.123-2.337,3.4-3.549,3.4Zm-5.195-11.89c0-.85.087-1.784.173-2.633a27.927,27.927,0,0,1,2.684-1.614c.779-.425,1.559-.764,2.338-1.189.779.34,1.558.764,2.337,1.189.953.51,1.818,1.1,2.684,1.614a26.766,26.766,0,0,1,0,5.265,27.8,27.8,0,0,1-2.684,1.614c-.779.425-1.558.849-2.337,1.189-.779-.34-1.559-.764-2.338-1.189-.952-.51-1.818-1.1-2.684-1.614-.086-.849-.173-1.783-.173-2.632Zm-1.731,1.358a8.045,8.045,0,0,1-1.559-1.358c.52-.425,1.039-.85,1.559-1.359v2.717Zm2.251-6.2.519-2.039a18.283,18.283,0,0,1,1.991.68l-1.039.509a8.235,8.235,0,0,0-1.471.85Zm6.839-1.444c.693-.255,1.385-.425,1.991-.68a8.834,8.834,0,0,1,.52,2.039c-.52-.255-.953-.595-1.472-.85l-1.039-.509ZM99.78,224.5a8.008,8.008,0,0,1,1.558,1.359c-.519.424-1.039.849-1.558,1.358V224.5Zm-2.251,6.2-.52,2.038a18.43,18.43,0,0,1-1.991-.68l1.039-.509a8.337,8.337,0,0,0,1.472-.849Zm-7.879.934,1.039.509c-.692.255-1.385.51-1.991.68a8.781,8.781,0,0,1-.519-2.039c.432.255.952.51,1.471.85Zm15.151.679a2.148,2.148,0,0,1-1.385.934,9.683,9.683,0,0,1-4.675-.084,26.194,26.194,0,0,0,.866-3.737c1.039-.765,2.077-1.529,3.03-2.378,1.905,2.208,2.77,4.161,2.164,5.265Zm-3.376-14.1a7.331,7.331,0,0,1,1.9.255,2.045,2.045,0,0,1,1.386.934c.606,1.1-.173,3.057-2.251,5.266a26.479,26.479,0,0,0-3.03-2.378,18.117,18.117,0,0,0-.866-3.737,11.865,11.865,0,0,1,2.857-.34Zm-8.571-4.246c1.212,0,2.51,1.273,3.549,3.4a24.935,24.935,0,0,0-3.549,1.274,24.992,24.992,0,0,0-3.55-1.274c1.039-2.124,2.338-3.4,3.55-3.4ZM80.906,219.4a2.154,2.154,0,0,1,1.385-.934,6.869,6.869,0,0,1,1.905-.255,10.316,10.316,0,0,1,2.771.34,26.028,26.028,0,0,0-.866,3.737c-1.039.764-2.078,1.528-3.03,2.378-1.905-2.209-2.771-4.162-2.165-5.266Zm2.251,7.644a26.615,26.615,0,0,0,3.03,2.378,18.132,18.132,0,0,0,.866,3.737,10.862,10.862,0,0,1-4.675.084,2.039,2.039,0,0,1-1.385-.934c-.693-1.1.173-3.057,2.164-5.265Z" style="fill:#777"/><path d="M92.854,228.4a2.548,2.548,0,1,0-2.6-2.547A2.526,2.526,0,0,0,92.854,228.4Zm0-3.4a.85.85,0,1,1-.866.85A.81.81,0,0,1,92.854,225.005Z" style="fill:#777"/><path d="M111.035,213.115h1.731v1.7h-1.731Z" style="fill:#777"/><path d="M112.766,214.814H114.5v1.7h-1.732Z" style="fill:#777"/><path d="M111.035,216.512h1.731v1.7h-1.731Z" style="fill:#777"/><path d="M109.3,214.814h1.732v1.7H109.3Z" style="fill:#777"/><path d="M74.673,233.5H76.4v1.7H74.673Z" style="fill:#777"/><path d="M76.4,235.2h1.732v1.7H76.4Z" style="fill:#777"/><path d="M74.673,236.9H76.4v1.7H74.673Z" style="fill:#777"/><path d="M72.941,235.2h1.732v1.7H72.941Z" style="fill:#777"/><path d="M109.3,223.307h1.732v1.7H109.3Z" style="fill:#777"/><path d="M111.035,225.005h1.731v1.7h-1.731Z" style="fill:#777"/><path d="M109.3,226.7h1.732v1.7H109.3Z" style="fill:#777"/><path d="M107.572,225.005H109.3v1.7h-1.731Z" style="fill:#777"/><path d="M75.538,214.814H77.27v1.7H75.538Z" style="fill:#777"/><path d="M71.21,222.457h1.731v1.7H71.21Z" style="fill:#777"/><path d="M107.572,236.9H109.3v1.7h-1.731Z" style="fill:#777"/></g><g id="_3-2" data-name="3"><path d="M113.387,338.167l-1.073-3.186q-.172-.509-.386-.991a16.8,16.8,0,0,0,2.059-23.8,16.888,16.888,0,0,0-8.552-5.394l4.139-6.543a.959.959,0,0,0-.3-1.323l-1.567-.991.975-1.543,1.568.992a.957.957,0,0,0,1.323-.3l2.023-3.2a.958.958,0,0,0-.3-1.323l-8.464-5.354a.96.96,0,0,0-1.323.3l-2.024,3.2a.959.959,0,0,0,.3,1.323l1.568.991-.976,1.543-1.568-.992a.958.958,0,0,0-1.322.3L85.681,313.7l-1.164-.737a.959.959,0,0,0-1.323.3l-2.024,3.2a.959.959,0,0,0,.3,1.323l12.414,7.851a.957.957,0,0,0,1.322-.3l2.024-3.2a.959.959,0,0,0-.3-1.323l-1.164-.736,3.405-5.385a6.675,6.675,0,0,1,4.519,12.549,11.752,11.752,0,0,0-2.527-.276H81.536A6.54,6.54,0,0,0,75,333.5a.959.959,0,0,0,.959.959H90.2c-.066.171-.13.344-.19.519l-1.056,3.136H72.869a5.157,5.157,0,0,0-5.151,5.151v3.71a.959.959,0,0,0,.959.959h48.2a.959.959,0,0,0,.959-.959v-3.71A5.156,5.156,0,0,0,113.387,338.167Zm-8.765-50.822,6.844,4.329-1,1.579-1.567-.991h0l-3.708-2.345h0l-1.567-.991Zm2.442,6.024-.976,1.543L104,293.591l.975-1.542ZM94.1,323.506,83.3,316.68l1-1.58,1.163.736h0l8.464,5.354h0l1.164.736Zm.048-4.448-.228-.145L87.3,314.729l13.3-21.021,1.567.991h0l3.708,2.345h0l1.567.991-4.357,6.889h0l-3.006,4.753Zm15.61,2.011a8.6,8.6,0,0,0-8.592-8.592q-.3,0-.6.021l3.76-5.945.031-.048a14.935,14.935,0,0,1,11.718,14.564,14.784,14.784,0,0,1-5.079,11.2l-.036-.051c-.056-.086-.114-.17-.173-.254l-.058-.081c-.065-.091-.131-.181-.2-.269l-.031-.04a11.764,11.764,0,0,0-4.362-3.5A8.622,8.622,0,0,0,109.755,321.069Zm-10.223,7.956a9.851,9.851,0,0,1,10.965,6.568l.85,2.524H90.979l.851-2.524a9.874,9.874,0,0,1,.713-1.618l0-.008a9.852,9.852,0,0,1,6.884-4.924Zm-22.51,3.519a4.621,4.621,0,0,1,4.514-3.655H94.723a11.749,11.749,0,0,0-3.565,3.655Zm38.893,13.476H69.636v-2.752a3.236,3.236,0,0,1,3.233-3.233h39.813a3.236,3.236,0,0,1,3.233,3.233Z" style="fill:#777"/><path d="M101.163,330.422a3.081,3.081,0,1,0,3.081,3.081A3.084,3.084,0,0,0,101.163,330.422Zm0,4.244a1.163,1.163,0,1,1,1.163-1.163A1.165,1.165,0,0,1,101.163,334.666Z" style="fill:#777"/></g><g id="_4-2" data-name="4"><path id="Scales" d="M124.679,380.954a1,1,0,0,0-.825-.436H122.02L113.3,364.783a.985.985,0,0,0-.165-.218c-.006-.006-.013-.009-.019-.015a.991.991,0,0,0-.262-.177c-.028-.013-.055-.024-.084-.035a.983.983,0,0,0-.345-.07H93.854v-4.983a1,1,0,0,0-2,0v4.983H73.282a1,1,0,0,0-.34.07.825.825,0,0,0-.086.037,1.01,1.01,0,0,0-.248.167c-.01.01-.023.016-.033.026a1.04,1.04,0,0,0-.168.225L63.9,380.518H61.854a1,1,0,0,0-.932,1.363c1.271,3.268,6.356,5.551,12.365,5.551s11.093-2.283,12.364-5.551a1,1,0,0,0-.932-1.363H82.885l-7.9-14.25H91.854v29.31H85.891a1,1,0,0,0-.5.136l-6.964,4.055a1,1,0,0,0,.5,1.865h27.851a1,1,0,0,0,.5-1.865l-6.961-4.055a1,1,0,0,0-.5-.136H93.854v-29.31h16.889l-7.712,14.25h-2.043a1,1,0,0,0-.931,1.363c1.27,3.268,6.355,5.551,12.364,5.551s11.094-2.283,12.364-5.551A1,1,0,0,0,124.679,380.954Zm-51.392,4.478c-4.045,0-7.753-1.185-9.548-2.914H82.833C81.038,384.247,77.331,385.432,73.287,385.432Zm-7.115-4.914L73.3,367.349l7.3,13.169Zm36.9,19.116H82.631l3.529-2.056H99.546Zm9.357-32.285,7.3,13.169H105.306Zm-.011,18.083c-4.045,0-7.752-1.185-9.547-2.914h19.094C120.173,384.247,116.466,385.432,112.421,385.432Z" style="fill:#777"/></g><g id="_5-2" data-name="5"><path d="M86.148,477.51a9.089,9.089,0,1,1,9.335-9.085A9.224,9.224,0,0,1,86.148,477.51Zm0-16.866a7.782,7.782,0,1,0,7.945,7.781A7.874,7.874,0,0,0,86.148,460.644Z" style="fill:#777"/><path d="M85.453,473.762v-.986l-.22-.041a3.005,3.005,0,0,1-2.638-2.152h1.434a2.309,2.309,0,0,0,2.119.938c1.307,0,2.185-.632,2.185-1.223s-.878-1.221-2.185-1.221c-2,0-3.576-1.11-3.576-2.526,0-1.149,1.094-2.151,2.66-2.437l.221-.04v-.987h1.389v.986l.221.041a3,3,0,0,1,2.637,2.152H88.267a2.31,2.31,0,0,0-2.119-.937c-1.307,0-2.185.631-2.185,1.222s.878,1.221,2.185,1.221c2,0,3.575,1.11,3.575,2.526,0,1.149-1.094,2.151-2.66,2.437l-.221.04v.987Z" style="fill:#777"/><path d="M71.052,481.258V456.9H66.947a2.575,2.575,0,0,1-2.615-2.526V428.134a2.575,2.575,0,0,1,2.615-2.527H88.068a2.575,2.575,0,0,1,2.615,2.527v1.221h12.08l11.921,11.635v14.032h-1.391V441.9h-11.52V430.66H90.683v23.71a2.575,2.575,0,0,1-2.615,2.526H72.442v23.057h40.851V468.709h1.391v12.549Zm-4.105-54.346a1.224,1.224,0,0,0-1.225,1.222V454.37a1.224,1.224,0,0,0,1.225,1.221H88.068a1.225,1.225,0,0,0,1.225-1.221V428.134a1.225,1.225,0,0,0-1.225-1.222ZM103.163,440.6h9.194l-9.194-8.973Z" style="fill:#777"/><rect x="95.053" y="449.032" width="1.39" height="1.305" style="fill:#777"/><rect x="98.893" y="449.032" width="10.99" height="1.305" style="fill:#777"/><rect x="95.053" y="445.284" width="1.39" height="1.305" style="fill:#777"/><rect x="98.893" y="445.284" width="10.99" height="1.305" style="fill:#777"/><rect x="95.053" y="452.78" width="1.39" height="1.305" style="fill:#777"/><rect x="98.893" y="452.78" width="10.99" height="1.305" style="fill:#777"/><rect x="95.053" y="456.528" width="1.39" height="1.305" style="fill:#777"/><rect x="98.893" y="456.528" width="10.99" height="1.305" style="fill:#777"/><path d="M67.212,434.408v-5.99H87.8v5.99ZM68.6,433.1H86.413v-3.38H68.6Z" style="fill:#777"/><path d="M69.827,440.967a1.625,1.625,0,0,1-1.655-1.589V437.5a1.625,1.625,0,0,1,1.655-1.589h1.92A1.625,1.625,0,0,1,73.4,437.5v1.875a1.625,1.625,0,0,1-1.655,1.589Zm-.265-1.305h2.45v-2.443h-2.45Z" style="fill:#777"/><path d="M76.547,440.967a1.625,1.625,0,0,1-1.655-1.589V437.5a1.625,1.625,0,0,1,1.655-1.589h1.92a1.625,1.625,0,0,1,1.655,1.589v1.875a1.625,1.625,0,0,1-1.655,1.589Zm-.265-1.305h2.45v-2.443h-2.45Z" style="fill:#777"/><path d="M83.267,440.967a1.624,1.624,0,0,1-1.654-1.589V437.5a1.624,1.624,0,0,1,1.654-1.589h1.921a1.624,1.624,0,0,1,1.654,1.589v1.875a1.624,1.624,0,0,1-1.654,1.589ZM83,439.662h2.451v-2.443H83Z" style="fill:#777"/><path d="M69.827,447.526a1.626,1.626,0,0,1-1.655-1.59v-1.874a1.625,1.625,0,0,1,1.655-1.589h1.92a1.625,1.625,0,0,1,1.655,1.589v1.874a1.625,1.625,0,0,1-1.655,1.59Zm-.265-1.305h2.45v-2.443h-2.45Z" style="fill:#777"/><path d="M76.547,447.526a1.626,1.626,0,0,1-1.655-1.59v-1.874a1.625,1.625,0,0,1,1.655-1.589h1.92a1.625,1.625,0,0,1,1.655,1.589v1.874a1.625,1.625,0,0,1-1.655,1.59Zm-.265-1.305h2.45v-2.443h-2.45Z" style="fill:#777"/><path d="M83.267,447.526a1.625,1.625,0,0,1-1.654-1.59v-1.874a1.624,1.624,0,0,1,1.654-1.589h1.921a1.624,1.624,0,0,1,1.654,1.589v1.874a1.625,1.625,0,0,1-1.654,1.59ZM83,446.221h2.451v-2.443H83Z" style="fill:#777"/><path d="M69.827,454.085a1.625,1.625,0,0,1-1.655-1.589v-1.874a1.626,1.626,0,0,1,1.655-1.59h1.92a1.625,1.625,0,0,1,1.655,1.59V452.5a1.625,1.625,0,0,1-1.655,1.589Zm-.265-1.305h2.45v-2.443h-2.45Z" style="fill:#777"/><path d="M76.547,454.085a1.625,1.625,0,0,1-1.655-1.589v-1.874a1.626,1.626,0,0,1,1.655-1.59h1.92a1.625,1.625,0,0,1,1.655,1.59V452.5a1.625,1.625,0,0,1-1.655,1.589Zm-.265-1.305h2.45v-2.443h-2.45Z" style="fill:#777"/><path d="M83.267,454.085a1.624,1.624,0,0,1-1.654-1.589v-1.874a1.625,1.625,0,0,1,1.654-1.59h1.921a1.625,1.625,0,0,1,1.654,1.59V452.5a1.624,1.624,0,0,1-1.654,1.589ZM83,452.78h2.451v-2.443H83Z" style="fill:#777"/><path d="M98.631,477.509a.722.722,0,0,1-.5-.2.62.62,0,0,1-.136-.715l2.317-4.911a.66.66,0,0,1,.135-.19L116.9,455.432a2.748,2.748,0,0,1,3.72,0,2.464,2.464,0,0,1-.005,3.549l-16.456,16.063a.685.685,0,0,1-.2.136l-5.033,2.262A.723.723,0,0,1,98.631,477.509Zm2.9-5.195-1.507,3.193,3.222-1.449,12.522-12.221-1.752-1.709Zm13.451-13.13,1.752,1.71,1.067-1.041-1.752-1.71Zm3.781-3.193a1.24,1.24,0,0,0-.852.336l-.9.877,1.752,1.71.857-.836a1.221,1.221,0,0,0,0-1.747A1.248,1.248,0,0,0,118.764,455.991Z" style="fill:#777"/></g><g id="_6-2" data-name="6"><path d="M65.445,601.623H86.238a4.783,4.783,0,0,0,4.725-4.832V591.51l2.415-1.646a.972.972,0,0,0,.421-.8V585.2a.956.956,0,0,0-.945-.967H88.128v-1.933h3.96a19.229,19.229,0,0,1,12.447,4.608.932.932,0,0,0,.605.224h3.781a.955.955,0,0,0,.945-.966h0V561.035a.956.956,0,0,0-.945-.967H105.14a.937.937,0,0,0-.605.224A19.218,19.218,0,0,1,92.088,564.9H75.842a.916.916,0,0,0-.351.07h0l-.015.006,0,0L70.765,566.9a.967.967,0,0,0-.594.9v11.6a.968.968,0,0,0,.594.9l4.708,1.925h0l.015.006h0a.915.915,0,0,0,.351.069h1.89v5.724l-.112.046-12.031-1.893a.948.948,0,0,0-1.078.808,1.039,1.039,0,0,0-.011.147v13.53a.955.955,0,0,0,.945.966Zm26.464-13.08-2.415,1.646a.972.972,0,0,0-.421.8v5.8a2.871,2.871,0,0,1-2.835,2.9H78.677v-9.976l8.688-3.554h4.544Zm16.067-3.348h-1.891V562h1.891ZM104.2,562.978v21.24a21.043,21.043,0,0,0-12.107-3.855h-3.96v-13.53h3.96A21.05,21.05,0,0,0,104.2,562.978Zm-32.134,5.476,2.835-1.16V579.9l-2.835-1.16Zm4.726-1.621h9.451v13.53H76.787Zm2.835,15.462h6.616v2.245l-6.616,2.706ZM66.39,588.254l10.4,1.635v9.8H66.39Z" style="fill:#777"/><path d="M112.7,572.631h8.506v1.933H112.7Z" style="fill:#777"/><path d="M111.342,578.3l.945-1.674,7.366,4.349-.945,1.673Z" style="fill:#777"/><path d="M111.468,568.9l7.366-4.349.945,1.674-7.366,4.349Z" style="fill:#777"/></g><g id="_7-2" data-name="7"><path d="M98.941,709.014a1.015,1.015,0,1,0,1.015,1.015A1.016,1.016,0,0,0,98.941,709.014Z" style="fill:#777"/><path d="M113.754,673.911h-41.8a5.078,5.078,0,0,0-5.073,5.072v31.046a5.078,5.078,0,0,0,5.073,5.072H87.781v4.667H86.766a5.075,5.075,0,0,0-5.072,5.073,1.014,1.014,0,0,0,1.014,1.015H103a1.014,1.014,0,0,0,1.015-1.015,5.079,5.079,0,0,0-5.073-5.073H97.926V715.1h15.828a5.077,5.077,0,0,0,5.072-5.072V678.983A5.077,5.077,0,0,0,113.754,673.911Zm-41.8,2.029h41.8a3.046,3.046,0,0,1,3.043,3.043v25.973H112.13V681.621a1.014,1.014,0,0,0-1.014-1.014H103a1.014,1.014,0,0,0-1.014,1.014v23.335H96.906c-.01-1.049-.038-2.084-.081-3.087a65.238,65.238,0,0,0-.793-8.118,5.073,5.073,0,0,0,1.385-6.617l-3.516-6.09a1.015,1.015,0,0,0-1.757,0l-3.519,6.091a5.073,5.073,0,0,0,1.117,6.4,64.227,64.227,0,0,0-.855,8.33c-.046,1.014-.075,2.049-.086,3.089H83.723V689.738a1,1,0,0,0-.1-.438l-.006-.016-4.058-8.117a1.016,1.016,0,0,0-1.816,0l-4.058,8.117-.006.016a1,1,0,0,0-.1.438v15.218H68.91V678.983A3.047,3.047,0,0,1,71.954,675.94Zm32.06,29.016v-22.32H110.1v2.029h-1.014a1.015,1.015,0,1,0,0,2.029H110.1v3.044h-1.014a1.015,1.015,0,1,0,0,2.029H110.1v3.043h-1.014a1.015,1.015,0,0,0,0,2.03H110.1V700.9h-1.014a1.015,1.015,0,1,0,0,2.029H110.1v2.029ZM93.022,694.74a5.1,5.1,0,0,0,1.095-.121c.188,1.206.465,3.342.628,6.279H90.969c.171-2.935.461-5.1.661-6.352A5.086,5.086,0,0,0,93.022,694.74Zm0-2.029a3.047,3.047,0,0,1-2.639-4.562l2.639-4.569,2.638,4.568A3.046,3.046,0,0,1,93.022,692.711Zm-2.146,10.216h3.958c.022.666.037,1.345.044,2.029H90.83C90.838,704.276,90.853,703.6,90.876,702.927Zm-11.211,2.029v-14.2h2.029v14.2Zm-4.059,0v-14.2h2.029v14.2Zm.627-16.233,2.417-4.833,2.417,4.833Zm25.578,35.1H83.9a3.044,3.044,0,0,1,2.87-2.029H98.941A3.049,3.049,0,0,1,101.811,723.827ZM95.9,719.768H89.81V715.1H95.9Zm17.857-6.7h-41.8a3.047,3.047,0,0,1-3.044-3.043v-3.044H116.8v3.044A3.046,3.046,0,0,1,113.754,713.072Z" style="fill:#777"/><path d="M94.883,709.014H88.8a1.015,1.015,0,1,0,0,2.029h6.087a1.015,1.015,0,0,0,0-2.029Z" style="fill:#777"/></g><g id="_8-2" data-name="8"><path d="M68.871,842.913a1.131,1.131,0,0,1-.828-1.9l4.642-4.993H71.409a4.4,4.4,0,0,1-4.391-4.392V792.654a4.4,4.4,0,0,1,4.391-4.391H98.434a4.4,4.4,0,0,1,4.391,4.391v10.933l13.906-14.962a1.129,1.129,0,0,1,1.241-.284,1.123,1.123,0,0,1,.718,1.052v52.39a1.131,1.131,0,0,1-1.13,1.13Zm2.593-2.261h44.965V792.27l-13.6,14.639v9.122l5.436-5.85a1.136,1.136,0,0,1,.829-.361,1.129,1.129,0,0,1,1.129,1.131v22.361a1.132,1.132,0,0,1-1.13,1.131h-7.281l-.149.16a4.4,4.4,0,0,1-3.225,1.416H75.771Zm-.055-50.128a2.133,2.133,0,0,0-2.131,2.13v38.973a2.133,2.133,0,0,0,2.131,2.131H98.434a2.133,2.133,0,0,0,2.13-2.131V792.654a2.132,2.132,0,0,0-2.13-2.13Zm31.416,28.827v12.776l.5.055h4.634V813.828Z" style="fill:#777"/><path d="M74.962,804.851a1.132,1.132,0,0,1-1.13-1.131v-7.774a1.132,1.132,0,0,1,1.13-1.131H94.88a1.132,1.132,0,0,1,1.131,1.131v7.774a1.132,1.132,0,0,1-1.131,1.131Zm1.13-2.261H93.75v-5.514H76.092Z" style="fill:#777"/><path d="M74.674,815.739a1.131,1.131,0,1,1,0-2.261h3.014a1.131,1.131,0,0,1,0,2.261Z" style="fill:#777"/><path d="M83.414,815.739a1.131,1.131,0,0,1,0-2.261h3.014a1.131,1.131,0,1,1,0,2.261Z" style="fill:#777"/><path d="M92.154,815.739a1.131,1.131,0,0,1,0-2.261h3.014a1.131,1.131,0,1,1,0,2.261Z" style="fill:#777"/><path d="M74.674,822.032a1.131,1.131,0,1,1,0-2.261h3.014a1.131,1.131,0,0,1,0,2.261Z" style="fill:#777"/><path d="M83.414,822.032a1.131,1.131,0,0,1,0-2.261h3.014a1.131,1.131,0,1,1,0,2.261Z" style="fill:#777"/><path d="M92.154,822.032a1.131,1.131,0,0,1,0-2.261h3.014a1.131,1.131,0,1,1,0,2.261Z" style="fill:#777"/><path d="M74.674,828.324a1.131,1.131,0,1,1,0-2.261h3.014a1.131,1.131,0,0,1,0,2.261Z" style="fill:#777"/><path d="M83.414,828.324a1.131,1.131,0,0,1,0-2.261H95.168a1.131,1.131,0,1,1,0,2.261Z" style="fill:#777"/></g><g id="_9-2" data-name="9"><g id="Nectie"><path d="M102.06,955.568h.073a1.157,1.157,0,0,0,.876-.4l15.079-17.4a1.16,1.16,0,0,0-.117-1.636c-.028-.024-.056-.046-.086-.068l-8.119-5.8a1.161,1.161,0,0,0-1.254-.063l-15.678,8.962L76,930.187a1.161,1.161,0,0,0-1.289.132l-6.959,5.8a1.159,1.159,0,0,0-.149,1.633l.014.017,15.079,17.4a1.157,1.157,0,0,0,.877.4h.073a1.162,1.162,0,0,0,.892-.514l1.8-2.7-5.077,35.53a1.161,1.161,0,0,0,.329.985L92.034,999.3a1.159,1.159,0,0,0,1.64,0l10.438-10.439a1.158,1.158,0,0,0,.329-.985l-5.076-35.532,1.8,2.7a1.162,1.162,0,0,0,.892.517Zm6.959-22.98,6.477,4.627L102.249,952.5l-7.74-11.617ZM88.307,955l4.116,1.646a1.156,1.156,0,0,0,.8.023l4.217-1.406.275,1.926L86.375,968.526Zm-2.479,17.353,12.3-12.295,1.044,7.28L84.441,982.058Zm7.062-18.019-2.116-.845,5.609-5.609.72,5.049ZM83.459,952.5,70.147,937.144,75.6,932.6l15.581,8.309Zm9.395-9.92,2.218,3.329-6.379,6.379.631-4.414ZM83.9,985.884l15.678-15.678,1.044,7.28L87.054,991.044l-3.409-3.411Zm8.959,10.959-4.16-4.159,12.329-12.329,1.043,7.278Z" style="fill:#777"/></g></g></g><g id="text" style="opacity:0.85"><g id="图层_13" data-name="图层 13"><text transform="translate(841.585 15.823)" style="font-size:12px;font-family:MyriadPro-Regular, Myriad Pro">(%) <tspan x="19.176" y="0" style="font-family:AvenirNextCondensed-DemiBold, Avenir Next Condensed;font-weight:300">Employment </tspan><tspan x="79.451" y="0" style="font-family:AvenirNextCondensed-DemiBold, Avenir Next Condensed;font-weight:300;letter-spacing:-0.0059814453125em">R</tspan><tspan x="85.535" y="0" style="font-family:AvenirNextCondensed-DemiBold, Avenir Next Condensed;font-weight:300;letter-spacing:-0.000040690104166666664em">ate </tspan></text></g><g id="图层_15" data-name="图层 15"><text transform="translate(976.203 15.823)" style="font-size:12px;font-family:AvenirNextCondensed-DemiBold, Avenir Next Condensed;font-weight:300">H-1B Employment<tspan x="82.487" y="0" style="letter-spacing:-0.017985026041666668em"> </tspan><tspan x="84.611" y="0">Annual</tspan><tspan x="117.082" y="0" xml:space="preserve" style="letter-spacing:-0.011962890625em"> W</tspan><tspan x="128.362" y="0" style="letter-spacing:-0.000040690104166666664em">age Median in 2018</tspan><tspan x="219.465" y="0" xml:space="preserve" style="font-family:MyriadPro-Regular, Myriad Pro;font-weight:400"> ($)</tspan></text></g><g id="图层_16" data-name="图层 16"><line x1="970.723" y1="20.457" x2="970.723" y2="3.624" style="stroke:#000;stroke-miterlimit:10;stroke-width:0.8px"/></g></g><g id="timeline-2000"><g style="opacity:0.35000000000000003"><line x1="249.166" y1="45.478" x2="249.166" y2="51.478" style="fill:none;stroke:#000;stroke-miterlimit:10;stroke-width:3px"/><line x1="249.166" y1="63.54" x2="249.166" y2="1046.59" style="fill:none;stroke:#000;stroke-miterlimit:10;stroke-width:3px;stroke-dasharray:12.061960220336914,12.061960220336914"/><line x1="249.166" y1="1052.621" x2="249.166" y2="1058.621" style="fill:none;stroke:#000;stroke-miterlimit:10;stroke-width:3px"/></g><path d="M276.322,1086.376c2.685-2.677,4.2-4.285,4.2-5.737a1.575,1.575,0,0,0-1.694-1.743,2.6,2.6,0,0,0-1.9,1.07l-.669-.652a3.507,3.507,0,0,1,2.71-1.357,2.482,2.482,0,0,1,2.681,2.63c0,1.677-1.539,3.343-3.647,5.559.484-.04,1.04-.078,1.5-.078h2.582v.991h-5.77Z"/><path d="M283.34,1082.559c0-3,1.079-4.6,2.863-4.6s2.863,1.611,2.863,4.6-1.079,4.668-2.863,4.668S283.34,1085.554,283.34,1082.559Zm4.608,0c0-2.62-.706-3.674-1.745-3.674s-1.745,1.054-1.745,3.674.707,3.74,1.745,3.74S287.948,1085.178,287.948,1082.559Z"/><path d="M290.3,1082.559c0-3,1.079-4.6,2.863-4.6s2.863,1.611,2.863,4.6-1.079,4.668-2.863,4.668S290.3,1085.554,290.3,1082.559Zm4.608,0c0-2.62-.706-3.674-1.745-3.674s-1.744,1.054-1.744,3.674.706,3.74,1.744,3.74S294.906,1085.178,294.906,1082.559Z"/><path d="M297.255,1082.559c0-3,1.08-4.6,2.864-4.6s2.863,1.611,2.863,4.6-1.079,4.668-2.863,4.668S297.255,1085.554,297.255,1082.559Zm4.608,0c0-2.62-.706-3.674-1.744-3.674s-1.745,1.054-1.745,3.674.707,3.74,1.745,3.74S301.863,1085.178,301.863,1082.559Z"/><path d="M307.652,1077.865h2.3c2.827,0,4.342,1.643,4.342,4.564s-1.515,4.63-4.29,4.63h-2.352Zm2.213,8.235c2.149,0,3.221-1.347,3.221-3.671s-1.072-3.605-3.221-3.605h-1.043v7.276Z"/><path d="M315.649,1083.663a3.178,3.178,0,1,1,3.155,3.564A3.257,3.257,0,0,1,315.649,1083.663Zm5.12,0c0-1.56-.794-2.622-1.965-2.622s-1.965,1.062-1.965,2.622.794,2.605,1.965,2.605S320.769,1085.224,320.769,1083.663Z"/><path d="M323.706,1084.953v-3.765h-1.013v-.873l1.065-.065.138-1.91h.962v1.91H326.7v.938h-1.845v3.786c0,.832.269,1.314,1.053,1.314a2.286,2.286,0,0,0,.776-.183l.223.87a4.129,4.129,0,0,1-1.264.252C324.2,1087.227,323.706,1086.309,323.706,1084.953Z"/><path d="M327.305,1083.1h3.211v.884h-3.211Z"/><path d="M331.721,1083.663a3.3,3.3,0,0,1,3.276-3.582,2.862,2.862,0,0,1,1.992.8l-.59.762a1.97,1.97,0,0,0-1.351-.6c-1.233,0-2.137,1.062-2.137,2.622s.854,2.605,2.106,2.605a2.454,2.454,0,0,0,1.6-.679l.5.772a3.312,3.312,0,0,1-2.2.866C333.1,1087.227,331.721,1085.917,331.721,1083.663Z"/><path d="M337.811,1083.663a3.178,3.178,0,1,1,3.155,3.564A3.257,3.257,0,0,1,337.811,1083.663Zm5.119,0c0-1.56-.793-2.622-1.964-2.622S339,1082.1,339,1083.663s.793,2.605,1.965,2.605S342.93,1085.224,342.93,1083.663Z"/><path d="M345.9,1080.25h.952l.1.987h.039a3.026,3.026,0,0,1,2.118-1.156,1.8,1.8,0,0,1,1.88,1.3,3.222,3.222,0,0,1,2.246-1.3c1.4,0,2.072.926,2.072,2.663v4.315h-1.153v-4.165c0-1.269-.4-1.812-1.266-1.812a2.489,2.489,0,0,0-1.707,1.046v4.931H350.03v-4.165c0-1.269-.4-1.812-1.267-1.812a2.521,2.521,0,0,0-1.706,1.046v4.931H345.9Z"/><path d="M360.417,1077.865h2.729c1.87,0,3.163.636,3.163,2.251a2.014,2.014,0,0,1-1.343,2v.056a2.121,2.121,0,0,1,1.869,2.2c0,1.807-1.43,2.69-3.479,2.69h-2.939Zm2.532,3.912c1.563,0,2.211-.577,2.211-1.508,0-1.075-.736-1.475-2.158-1.475h-1.415v2.983Zm.239,4.353c1.572,0,2.5-.567,2.5-1.805,0-1.133-.891-1.65-2.5-1.65h-1.6v3.455Z"/><path d="M368.451,1084.563v-4.313H369.6v4.165c0,1.269.383,1.812,1.284,1.812.7,0,1.179-.346,1.823-1.148v-4.829h1.152v6.809h-.951l-.1-1.067h-.038a2.894,2.894,0,0,1-2.246,1.235C369.1,1087.227,368.451,1086.3,368.451,1084.563Z"/><path d="M377.225,1086.355h-.038l-.108.7h-.921v-9.98h1.153v2.73l-.039,1.22a3.449,3.449,0,0,1,2.139-.948c1.759,0,2.7,1.366,2.7,3.465,0,2.326-1.393,3.681-2.949,3.681A3.045,3.045,0,0,1,377.225,1086.355Zm3.7-2.793c0-1.5-.513-2.511-1.8-2.511a2.762,2.762,0,0,0-1.819.929v3.569a2.625,2.625,0,0,0,1.657.708C380.1,1086.257,380.925,1085.242,380.925,1083.562Z"/><path d="M384.911,1086.355h-.038l-.108.7h-.921v-9.98H385v2.73l-.039,1.22a3.449,3.449,0,0,1,2.139-.948c1.759,0,2.705,1.366,2.705,3.465,0,2.326-1.393,3.681-2.949,3.681A3.045,3.045,0,0,1,384.911,1086.355Zm3.7-2.793c0-1.5-.513-2.511-1.8-2.511a2.762,2.762,0,0,0-1.819.929v3.569a2.625,2.625,0,0,0,1.657.708C387.781,1086.257,388.611,1085.242,388.611,1083.562Z"/><path d="M391.53,1085.691v-8.612h1.152v8.7c0,.352.153.493.321.493a.959.959,0,0,0,.252-.029l.157.88a1.849,1.849,0,0,1-.663.108C391.885,1087.227,391.53,1086.676,391.53,1085.691Z"/><path d="M394.594,1083.663a3.283,3.283,0,0,1,3.06-3.582c1.737,0,2.718,1.248,2.718,3.2a3.661,3.661,0,0,1-.054.655h-4.586a2.265,2.265,0,0,0,2.263,2.378,2.977,2.977,0,0,0,1.694-.544l.413.756a4.005,4.005,0,0,1-2.248.706A3.256,3.256,0,0,1,394.594,1083.663Zm4.76-.558c0-1.364-.614-2.106-1.679-2.106a2.09,2.09,0,0,0-1.953,2.106Z"/><g id="图层_20" data-name="图层 20"><path d="M257.791,1064.826l-6.4-7.308a2.558,2.558,0,0,0-3.852,0l-6.4,7.312a2.558,2.558,0,0,0-.633,1.685v17.544a2.559,2.559,0,0,0,2.559,2.559h12.79a2.554,2.554,0,0,0,2.559-2.553c0-6.836,0-16.735,0-17.574A2.559,2.559,0,0,0,257.791,1064.826Zm-8.326,2.6a1.919,1.919,0,1,1,1.919-1.919A1.92,1.92,0,0,1,249.465,1067.425Z" style="fill:#7aa3d6"/><path d="M249.465,1063.906a1.6,1.6,0,1,1-1.6,1.6,1.6,1.6,0,0,1,1.6-1.6m0-1.279a2.879,2.879,0,1,0,2.879,2.879A2.878,2.878,0,0,0,249.465,1062.627Z" style="fill:#5886c5"/><circle cx="260.986" cy="1081.5" r="7.677" style="fill:#c2dd90"/><circle cx="260.986" cy="1081.5" r="2.559" style="fill:#89c441"/><circle cx="260.986" cy="1081.5" r="7.677" style="fill:#c2dd90"/><circle cx="260.986" cy="1081.5" r="2.559" style="fill:#89c441"/><circle cx="260.986" cy="1081.5" r="6.954" style="fill:#c2dd90"/><circle cx="260.986" cy="1081.5" r="3.839" style="fill:#fff"/><circle cx="260.986" cy="1081.5" r="2.559" style="fill:#89c441"/><path d="M271.222,1080.86h-2.591a7.671,7.671,0,0,0-7-7v-2.591h-1.28v2.591a7.67,7.67,0,0,0-7,7H250.75v1.279h2.591a7.672,7.672,0,0,0,7,7.006v2.591h1.28v-2.591a7.672,7.672,0,0,0,7-7.006h2.591Zm-9.6,6.972v-2.494h-1.28v2.494a6.363,6.363,0,0,1-5.692-5.693h2.493v-1.279h-2.493a6.364,6.364,0,0,1,5.692-5.693v2.494h1.28v-2.494a6.364,6.364,0,0,1,5.692,5.693h-2.494v1.279h2.494A6.364,6.364,0,0,1,261.626,1087.832Z" style="fill:#333"/><circle cx="260.986" cy="1081.5" r="0.96" style="fill:#333"/></g></g><g id="timeline-2008"><path d="M541.317,1099.242h8.675v8.675h-8.675Z" style="fill:#e0edff"/><path d="M549.992,1099.242l-8.675-4.338v4.338Z" style="fill:#ef5e3b"/><path d="M544.57,1105.748h2.169v2.169H544.57Z" style="fill:#bdd1f2"/><path d="M519.628,1078.637h5.422v29.28h-5.422Z" style="fill:#ffc431"/><path d="M525.05,1082.975h5.422v24.942H525.05Z" style="fill:#ffb401"/><path d="M530.472,1087.313H535.9v20.6h-5.423Z" style="fill:#ffa100"/><path d="M535.9,1092.735h5.422v15.182H535.9Z" style="fill:#f78e00"/><path d="M540.074,1086.387l-.767.767" style="fill:#548aff"/><path d="M536.054,1083.9l.766-.767" style="fill:#548aff"/><path d="M541.476,1089.323l.767-.767" style="fill:#548aff"/><path d="M539.69,1086.77h2.169v2.169H539.69Z" style="fill:#548aff"/><path d="M545.112,1092.193h2.169v2.169h-2.169Z" style="fill:#548aff"/><path d="M534.268,1081.348h2.169v2.169h-2.169Z" style="fill:#548aff"/><path d="M542.944,1103.037h1.084v1.085h-1.084Z"/><path d="M545.112,1103.037H546.2v1.085h-1.085Z"/><path d="M547.281,1103.037h1.085v1.085h-1.085Z"/><path d="M542.944,1100.868h1.084v1.085h-1.084Z"/><path d="M545.112,1100.868H546.2v1.085h-1.085Z"/><path d="M547.281,1100.868h1.085v1.085h-1.085Z"/><path d="M521.255,1109.544h2.169v1.084h-2.169Z"/><path d="M526.677,1109.544h2.169v1.084h-2.169Z"/><path d="M532.1,1109.544h2.169v1.084H532.1Z"/><path d="M537.521,1109.544h2.169v1.084h-2.169Z"/><path d="M544.57,1109.544h2.169v1.084H544.57Z"/><path d="M547.824,1092.193a.543.543,0,0,0-.543-.543h-1.944l-2.936-2.935v-1.945a.542.542,0,0,0-.542-.542h-1.944l-2.936-2.935v-1.945a.542.542,0,0,0-.542-.542h-1.944l-2.553-2.552a.539.539,0,0,0-.383-.159H519.628a.542.542,0,0,0-.542.542v29.28a.542.542,0,0,0,.542.542h30.364a.542.542,0,0,0,.543-.542v-8.675a.54.54,0,0,0-.3-.485l-8.376-4.188v-1.834a.542.542,0,0,0-.542-.542h-4.88v-4.88a.543.543,0,0,0-.542-.543h-4.88v-3.8a.542.542,0,0,0-.543-.542h-4.88v-3.254h5.74l2.394,2.394v1.944a.542.542,0,0,0,.542.542h1.944l2.936,2.936v1.944a.543.543,0,0,0,.542.543h1.945l2.935,2.935v1.945a.542.542,0,0,0,.542.542h2.169a.543.543,0,0,0,.543-.542v-.543h3.8v-1.084h-3.8Zm-27.654-13.014h4.338v28.2H520.17Zm24.942,28.2v-1.085H546.2v1.085Zm2.169,0v-1.627a.542.542,0,0,0-.542-.542H544.57a.542.542,0,0,0-.542.542v1.627h-2.169v-7.591h7.591v7.591Zm.415-8.676h-5.837v-2.918Zm-6.921-5.422v14.1h-4.338v-14.1Zm-5.423-5.422v19.52h-4.337v-19.52Zm-5.422-4.338v23.858h-4.338v-23.858Zm5.965-.542H534.81v-1.085H535.9Zm5.422,5.422h-1.085v-1.084h1.085Zm5.422,5.422h-1.084v-1.084h1.084Z"/><line x1="521.718" y1="45.478" x2="521.718" y2="1079.179" style="fill:#bfbfbf;stroke:#000;stroke-miterlimit:10;stroke-width:3px;stroke-dasharray:12;opacity:0.35000000000000003"/><path d="M557.8,1099.724h5.3v.99h-4.132v3.1h3.5v.99h-3.5v4.113H557.8Z"/><path d="M564.4,1099.964a.8.8,0,0,1,1.591,0,.8.8,0,0,1-1.591,0Zm.21,2.144h1.153v6.809h-1.153Z"/><path d="M568.05,1102.108H569l.1.982h.039a3.249,3.249,0,0,1,2.284-1.151c1.434,0,2.078.926,2.078,2.664v4.314h-1.151v-4.165c0-1.269-.384-1.812-1.285-1.812a2.581,2.581,0,0,0-1.861,1.046v4.931H568.05Z"/><path d="M575.286,1107.149c0-1.483,1.28-2.225,4.182-2.541,0-.876-.293-1.719-1.406-1.719a3.75,3.75,0,0,0-2.03.73l-.451-.79a5,5,0,0,1,2.674-.89c1.662,0,2.365,1.105,2.365,2.8v4.178h-.952l-.1-.814h-.038a3.616,3.616,0,0,1-2.252.982A1.852,1.852,0,0,1,575.286,1107.149Zm4.182.107v-1.892c-2.282.275-3.053.834-3.053,1.7,0,.774.525,1.089,1.193,1.089A2.8,2.8,0,0,0,579.468,1107.256Z"/><path d="M582.764,1102.108h.952l.1.982h.039a3.247,3.247,0,0,1,2.284-1.151c1.434,0,2.078.926,2.078,2.664v4.314h-1.152v-4.165c0-1.269-.383-1.812-1.284-1.812a2.581,2.581,0,0,0-1.861,1.046v4.931h-1.153Z"/><path d="M589.916,1105.521a3.3,3.3,0,0,1,3.276-3.582,2.864,2.864,0,0,1,1.992.8l-.589.762a1.975,1.975,0,0,0-1.351-.6c-1.233,0-2.138,1.062-2.138,2.622s.854,2.605,2.106,2.605a2.452,2.452,0,0,0,1.6-.679l.5.773a3.314,3.314,0,0,1-2.2.865C591.3,1109.085,589.916,1107.775,589.916,1105.521Z"/><path d="M596.6,1099.964a.8.8,0,0,1,1.592,0,.8.8,0,0,1-1.592,0Zm.211,2.144h1.152v6.809h-1.152Z"/><path d="M599.828,1107.149c0-1.483,1.279-2.225,4.181-2.541,0-.876-.293-1.719-1.4-1.719a3.747,3.747,0,0,0-2.03.73l-.451-.79a5,5,0,0,1,2.674-.89c1.661,0,2.365,1.105,2.365,2.8v4.178h-.952l-.1-.814h-.039a3.616,3.616,0,0,1-2.251.982A1.851,1.851,0,0,1,599.828,1107.149Zm4.181.107v-1.892c-2.281.275-3.053.834-3.053,1.7,0,.774.525,1.089,1.193,1.089A2.8,2.8,0,0,0,604.009,1107.256Z"/><path d="M607.306,1107.55v-8.612h1.152v8.7c0,.351.153.492.321.492a.992.992,0,0,0,.252-.028l.157.88a1.876,1.876,0,0,1-.664.107C607.661,1109.085,607.306,1108.534,607.306,1107.55Z"/><path d="M613.249,1104.328c0-2.965,1.747-4.772,4.08-4.772a3.425,3.425,0,0,1,2.528,1.133l-.641.762a2.5,2.5,0,0,0-1.867-.867c-1.737,0-2.892,1.423-2.892,3.714,0,2.31,1.1,3.759,2.847,3.759a2.758,2.758,0,0,0,2.131-1.033l.64.734a3.542,3.542,0,0,1-2.82,1.327C614.965,1109.085,613.249,1107.314,613.249,1104.328Z"/><path d="M621.669,1102.108h.952l.1,1.24h.039a2.345,2.345,0,0,1,1.936-1.409,1.587,1.587,0,0,1,.726.141l-.214,1.011a1.9,1.9,0,0,0-.661-.112c-.575,0-1.262.415-1.722,1.566v4.372h-1.153Z"/><path d="M626.316,1099.964a.8.8,0,0,1,1.592,0,.8.8,0,0,1-1.592,0Zm.211,2.144h1.153v6.809h-1.153Z"/><path d="M629.216,1108.14l.569-.759a3.07,3.07,0,0,0,2.01.807c.893,0,1.338-.477,1.338-1.058,0-.7-.8-1.01-1.558-1.29-.954-.349-2.03-.819-2.03-1.967,0-1.09.872-1.934,2.349-1.934a3.45,3.45,0,0,1,2.116.766l-.551.738a2.566,2.566,0,0,0-1.552-.606c-.858,0-1.254.458-1.254.976,0,.648.74.895,1.512,1.182.981.37,2.076.77,2.076,2.066,0,1.1-.878,2.024-2.485,2.024A4.089,4.089,0,0,1,629.216,1108.14Z"/><path d="M635.626,1099.964a.8.8,0,0,1,1.592,0,.8.8,0,0,1-1.592,0Zm.211,2.144h1.152v6.809h-1.152Z"/><path d="M638.525,1108.14l.569-.759a3.074,3.074,0,0,0,2.01.807c.894,0,1.338-.477,1.338-1.058,0-.7-.8-1.01-1.557-1.29-.954-.349-2.031-.819-2.031-1.967,0-1.09.873-1.934,2.349-1.934a3.451,3.451,0,0,1,2.117.766l-.551.738a2.566,2.566,0,0,0-1.553-.606c-.858,0-1.254.458-1.254.976,0,.648.741.895,1.512,1.182.982.37,2.076.77,2.076,2.066,0,1.1-.877,2.024-2.484,2.024A4.094,4.094,0,0,1,638.525,1108.14Z"/><path d="M647.441,1105.521a3.178,3.178,0,1,1,3.155,3.564A3.257,3.257,0,0,1,647.441,1105.521Zm5.12,0c0-1.56-.794-2.622-1.965-2.622s-1.965,1.062-1.965,2.622.794,2.605,1.965,2.605S652.561,1107.082,652.561,1105.521Z"/><path d="M654.772,1102.174l.976-.066h2.543v.939h-3.519Zm.924-1.142c0-1.384.63-2.262,2-2.262a3,3,0,0,1,1.13.234l-.243.88a1.86,1.86,0,0,0-.771-.176c-.643,0-.958.449-.958,1.329v7.88H655.7Z"/><path d="M661.8,1108.234c2.685-2.676,4.2-4.285,4.2-5.737a1.575,1.575,0,0,0-1.695-1.743,2.6,2.6,0,0,0-1.9,1.07l-.669-.651a3.51,3.51,0,0,1,2.71-1.358,2.483,2.483,0,0,1,2.682,2.63c0,1.677-1.54,3.343-3.647,5.559.483-.039,1.039-.077,1.5-.077h2.583v.99H661.8Z"/><path d="M668.821,1104.417c0-2.995,1.079-4.6,2.863-4.6s2.863,1.612,2.863,4.6-1.079,4.668-2.863,4.668S668.821,1107.412,668.821,1104.417Zm4.608,0c0-2.619-.706-3.674-1.745-3.674s-1.745,1.055-1.745,3.674.707,3.74,1.745,3.74S673.429,1107.036,673.429,1104.417Z"/><path d="M675.779,1104.417c0-2.995,1.079-4.6,2.863-4.6s2.863,1.612,2.863,4.6-1.079,4.668-2.863,4.668S675.779,1107.412,675.779,1104.417Zm4.608,0c0-2.619-.706-3.674-1.745-3.674s-1.745,1.055-1.745,3.674.707,3.74,1.745,3.74S680.387,1107.036,680.387,1104.417Z"/><path d="M687.183,1100.974h-4.448v-.991h5.758v.705c-2.116,2.706-2.553,4.743-2.7,8.229H684.6A13.146,13.146,0,0,1,687.183,1100.974Z"/><path d="M689.658,1104.961h3.211v.885h-3.211Z"/><path d="M693.891,1108.234c2.685-2.676,4.2-4.285,4.2-5.737a1.575,1.575,0,0,0-1.694-1.743,2.6,2.6,0,0,0-1.9,1.07l-.668-.651a3.508,3.508,0,0,1,2.71-1.358,2.483,2.483,0,0,1,2.681,2.63c0,1.677-1.539,3.343-3.647,5.559.484-.039,1.039-.077,1.5-.077h2.582v.99h-5.77Z"/><path d="M700.909,1104.417c0-2.995,1.079-4.6,2.863-4.6s2.863,1.612,2.863,4.6-1.079,4.668-2.863,4.668S700.909,1107.412,700.909,1104.417Zm4.608,0c0-2.619-.706-3.674-1.745-3.674s-1.745,1.055-1.745,3.674.707,3.74,1.745,3.74S705.517,1107.036,705.517,1104.417Z"/><path d="M707.866,1104.417c0-2.995,1.08-4.6,2.863-4.6s2.864,1.612,2.864,4.6-1.079,4.668-2.864,4.668S707.866,1107.412,707.866,1104.417Zm4.609,0c0-2.619-.706-3.674-1.746-3.674s-1.744,1.055-1.744,3.674.706,3.74,1.744,3.74S712.475,1107.036,712.475,1104.417Z"/><path d="M714.777,1106.63a2.822,2.822,0,0,1,1.688-2.4v-.056a2.527,2.527,0,0,1-1.248-2.066,2.535,2.535,0,0,1,5.053.085,2.919,2.919,0,0,1-1.233,2.156v.056a2.6,2.6,0,0,1,1.554,2.3c0,1.34-1.153,2.387-2.878,2.387C716.021,1109.085,714.777,1108.052,714.777,1106.63Zm4.711.037c0-1.158-1.13-1.569-2.42-2.088a2.4,2.4,0,0,0-1.25,1.948,1.769,1.769,0,0,0,1.915,1.7A1.587,1.587,0,0,0,719.488,1106.667Zm-.214-4.413a1.487,1.487,0,0,0-1.55-1.583,1.382,1.382,0,0,0-1.451,1.435c0,1.067.99,1.516,2.061,1.941A2.415,2.415,0,0,0,719.274,1102.254Z"/></g></svg>