<svg height="799.99998pt" viewBox="-24 -24 799.99998 799.99998" width="799.99998pt" xmlns="http://www.w3.org/2000/svg"><path d="m573.332031 310.832031c-20.707031 0-37.5 16.792969-37.5 37.5.058594 1.511719.214844 3.007813.449219 4.5l-36.945312 18.578125c-10.601563-10.371094-26.367188-13.429687-40.074219-7.773437l-53.238281-59.789063c3.109374-5.496094 4.765624-11.695312 4.808593-18.015625 0-20.707031-16.789062-37.5-37.5-37.5-20.707031 0-37.5 16.792969-37.5 37.5.039063 8.523438 3.003907 16.773438 8.398438 23.367188l-62.996094 102.492187c-7.355469-1.632812-15.023437-.960937-21.972656 1.929688l-53.238281-59.789063c3.109374-5.492187 4.765624-11.691406 4.808593-18 0-20.707031-16.789062-37.5-37.5-37.5-20.707031 0-37.5 16.792969-37.5 37.5 0 20.710938 16.792969 37.5 37.5 37.5 4.832031-.007812 9.609375-.957031 14.074219-2.800781l53.238281 59.789062c-3.113281 5.492188-4.765625 11.695313-4.8125 18.011719 0 20.710938 16.792969 37.5 37.5 37.5 20.710938 0 37.5-16.789062 37.5-37.5-.039062-8.519531-3-16.769531-8.398437-23.363281l63-102.496094c7.351562 1.636719 15.023437.964844 21.972656-1.925781l53.238281 59.789063c-3.113281 5.492187-4.765625 11.6875-4.8125 17.996093 0 20.710938 16.792969 37.5 37.5 37.5 20.710938 0 37.5-16.789062 37.5-37.5-.058593-1.507812-.214843-3.007812-.449219-4.496093l36.949219-18.578126c12.144531 11.773438 30.664063 13.953126 45.214844 5.339844 14.550781-8.625 21.535156-25.917968 17.042969-42.226562-4.492188-16.300782-19.34375-27.582032-36.257813-27.539063zm-412.5 25c0-6.902343 5.597657-12.5 12.5-12.5 6.90625 0 12.5 5.597657 12.5 12.5 0 6.90625-5.59375 12.5-12.5 12.5-6.902343 0-12.5-5.59375-12.5-12.5zm112.5 125c-6.902343 0-12.5-5.59375-12.5-12.5 0-6.902343 5.597657-12.5 12.5-12.5 6.90625 0 12.5 5.597657 12.5 12.5 0 6.90625-5.59375 12.5-12.5 12.5zm87.5-175c0-6.902343 5.597657-12.5 12.5-12.5 6.90625 0 12.5 5.597657 12.5 12.5 0 6.90625-5.59375 12.5-12.5 12.5-6.902343 0-12.5-5.59375-12.5-12.5zm112.5 125c-6.902343 0-12.5-5.59375-12.5-12.5 0-6.902343 5.597657-12.5 12.5-12.5 6.90625 0 12.5 5.597657 12.5 12.5 0 6.90625-5.59375 12.5-12.5 12.5zm100-50c-6.902343 0-12.5-5.59375-12.5-12.5 0-6.902343 5.597657-12.5 12.5-12.5 6.90625 0 12.5 5.597657 12.5 12.5 0 6.90625-5.59375 12.5-12.5 12.5zm0 0"/><path d="m748.332031 432.347656v-118.027344l-73.851562-24.609374c-6.785157-24.484376-16.558594-48.039063-29.097657-70.128907l34.835938-69.675781-83.449219-83.46875-69.6875 34.832031c-22.097656-12.527343-45.648437-22.296875-70.125-29.097656l-24.609375-73.839844h-118.027344l-24.609374 73.839844c-24.476563 6.800781-48.027344 16.570313-70.128907 29.097656l-69.6875-34.832031-83.445312 83.457031 34.832031 69.6875c-12.539062 22.089844-22.308594 45.644531-29.09375 70.128907l-73.855469 24.609374v118.027344l73.855469 24.609375c6.785156 24.480469 16.554688 48.035157 29.09375 70.125l-34.832031 69.6875 83.445312 83.457031 69.6875-34.828124c22.105469 12.523437 45.65625 22.296874 70.136719 29.097656l24.601562 73.835937h118.027344l24.609375-73.835937c24.476563-6.800782 48.027344-16.574219 70.125-29.097656l69.679688 34.828124 83.445312-83.457031-34.824219-69.6875c12.539063-22.097656 22.3125-45.652343 29.097657-70.136719zm-96.25 11.824219c-6.796875 26.75-17.425781 52.378906-31.5625 76.085937l-3.507812 5.878907 32.859375 65.699219-58.035156 57.972656-65.699219-32.847656-5.878907 3.496093c-23.707031 14.160157-49.339843 24.808594-76.097656 31.625l-6.621094 1.691407-23.21875 69.558593h-81.972656l-23.21875-69.621093-6.621094-1.691407c-26.757812-6.792969-52.390624-17.425781-76.097656-31.5625l-5.878906-3.496093-65.699219 32.847656-57.972656-57.972656 32.867187-65.699219-3.515624-5.878907c-14.136719-23.707031-24.773438-49.335937-31.5625-76.085937l-1.679688-6.625-69.636719-23.226563v-81.972656l69.636719-23.226562 1.679688-6.628906c6.789062-26.746094 17.425781-52.375 31.5625-76.082032l3.515624-5.878906-32.867187-65.699219 57.972656-57.972656 65.699219 32.847656 5.878906-3.496093c23.707032-14.136719 49.339844-24.773438 76.097656-31.5625l6.621094-1.691407 23.21875-69.625h81.972656l23.21875 69.625 6.621094 1.691407c26.757813 6.789062 52.390625 17.425781 76.097656 31.5625l5.878907 3.496093 65.699219-32.847656 57.972656 57.972656-32.867188 65.699219 3.515625 5.878906c14.160157 23.699219 24.808594 49.324219 31.625 76.082032l1.675781 6.628906 69.574219 23.226562v81.972656l-69.632812 23.226563zm0 0"/></svg>