<?xml version="1.0"?>
<svg xmlns="http://www.w3.org/2000/svg" id="Layer_1" data-name="Layer 1" viewBox="0 0 512 512" width="512" height="512"><title>Business Management</title><path d="M163.33,172.82c0-28.974-23.086-52.546-51.463-52.546S60.4,143.846,60.4,172.82s23.086,52.546,51.463,52.546S163.33,201.794,163.33,172.82Zm-90.926,0c0-22.357,17.7-40.546,39.463-40.546s39.463,18.189,39.463,40.546-17.7,40.546-39.463,40.546S72.4,195.177,72.4,172.82Z"/><path d="M448.372,166.862H393.657c-29.723,0-53.9,24.693-53.9,55.045v43.251a6,6,0,0,0,6,6h69.132l.251,172.746a14.314,14.314,0,0,1-4.166,10.269,13.773,13.773,0,0,1-9.834,4.118H342.408a56.53,56.53,0,0,0-.185-28.664q-.194-.721-.4-1.447a69.5,69.5,0,0,0-36.128-43.674,12.419,12.419,0,0,0,.586-3.772v-2.805a12.435,12.435,0,0,0-4.061-9.186,112.234,112.234,0,0,1,8.8-15.688,45.414,45.414,0,0,1,10.989-11.266c1.5-1.178,3.046-2.4,4.628-3.808a10.057,10.057,0,0,0,3.009-10.351,9.411,9.411,0,0,0-10.21-6.683c-3.083.259-7.654-2.432-10.992-4.394a40.752,40.752,0,0,0-5.055-2.687c-9.663-3.919-15.99,2.807-18.368,5.334a20.076,20.076,0,0,1-4.512,2.622c-.131.051-.264.1-.4.139-3.649,1.074-5.218.926-8.588-2.118-9.386-8.479-17.7-4.175-20.026-2.653-2.559,1.674-3.757,4.336-4.915,6.911a32.409,32.409,0,0,1-1.481,3.015c-.028.048-.054.091-.079.132-.179-.109-.471-.3-.941-.65l-.6-.448a55.5,55.5,0,0,0-11.522-6.762c-.155-.07-.33-.155-.522-.247-.6-.287-1.417-.681-2.325-1.035-3.885-1.519-12.107-1.851-16.288-.658a10.542,10.542,0,0,0-3.418,1.54,11.024,11.024,0,0,0-4.073,5.959,12.481,12.481,0,0,0,5.1,13.764,53.982,53.982,0,0,1,14.157,13.783,60.925,60.925,0,0,1,7.518,14.612,12.478,12.478,0,0,0-6.292,10.823v2.805a12.388,12.388,0,0,0,1.081,5.057c-10.72,5.588-27.569,16.461-35.3,37.882-.418,1.159-.816,2.345-1.184,3.526a56.6,56.6,0,0,0-.781,31.092H131.867a14.16,14.16,0,0,1-14-14.285v-166.9h6.525a7.7,7.7,0,0,0,7.673-7.713V258.908a84.565,84.565,0,0,0,24.97-10.564l7.106,7.275a7.647,7.647,0,0,0,10.95,0L192.8,237.483a7.781,7.781,0,0,0,0-10.807l-7.224-7.4a88.576,88.576,0,0,0,10.5-25.787h9.979a7.7,7.7,0,0,0,7.673-7.714V160.133a7.7,7.7,0,0,0-7.673-7.713h-9.917a88.587,88.587,0,0,0-10.464-25.891l7.123-7.293a7.78,7.78,0,0,0,0-10.808L175.092,90.3a7.644,7.644,0,0,0-10.952,0L157.2,97.4a84.538,84.538,0,0,0-25.135-10.667V76.519a7.7,7.7,0,0,0-7.673-7.714h-6.525V36.285a14.16,14.16,0,0,1,14-14.285H401.28a14.148,14.148,0,0,1,14,14.231l-.353,38.951c-21.081,2.97-37.372,21.466-37.372,43.783,0,24.378,19.434,44.211,43.322,44.211S464.2,143.343,464.2,118.965c0-22.281-16.238-40.755-37.271-43.77l.353-38.91A26.173,26.173,0,0,0,401.28,10H131.867a26.173,26.173,0,0,0-26,26.285v32.52H99.343a7.7,7.7,0,0,0-7.674,7.714V86.732A84.553,84.553,0,0,0,66.534,97.4L59.6,90.3a7.644,7.644,0,0,0-10.952,0L30.931,108.427a7.781,7.781,0,0,0,0,10.808l7.124,7.294A88.587,88.587,0,0,0,27.59,152.42H17.674A7.7,7.7,0,0,0,10,160.133v25.645a7.7,7.7,0,0,0,7.674,7.714h9.978a88.588,88.588,0,0,0,10.5,25.787l-7.226,7.4a7.783,7.783,0,0,0,0,10.807l17.713,18.135a7.648,7.648,0,0,0,10.951,0l7.1-7.274a84.565,84.565,0,0,0,24.97,10.564v10.485a7.7,7.7,0,0,0,7.674,7.713h6.524v166.9a26.173,26.173,0,0,0,26,26.285h62.364a59.646,59.646,0,0,0,4.929,7.956A57.646,57.646,0,0,0,245.983,502h40.168a57.672,57.672,0,0,0,46.043-22.777,58.833,58.833,0,0,0,5.653-8.933h63.289a25.692,25.692,0,0,0,18.349-7.662,26.215,26.215,0,0,0,7.651-18.776l-.251-172.695H496a6,6,0,0,0,6-6V221.906C502,191.649,477.968,167.015,448.372,166.862Zm3.826-47.9c0,17.762-14.051,32.211-31.321,32.211s-31.322-14.449-31.322-32.211,14.051-32.21,31.322-32.21S452.2,101.205,452.2,118.965ZM97.487,247.91a72.822,72.822,0,0,1-27.061-11.471,7.633,7.633,0,0,0-9.806.955l-6.5,6.656L42.426,232.08l6.672-6.831a7.781,7.781,0,0,0,.915-9.663A76.781,76.781,0,0,1,38.7,187.746a7.7,7.7,0,0,0-7.528-6.254H22V164.42h9.117a7.693,7.693,0,0,0,7.532-6.279A76.786,76.786,0,0,1,49.916,130.2a7.786,7.786,0,0,0-.923-9.649l-6.567-6.722,11.692-11.971,6.343,6.494a7.636,7.636,0,0,0,9.821.945A72.817,72.817,0,0,1,97.487,97.73a7.723,7.723,0,0,0,6.182-7.559V80.805h16.4v9.366a7.723,7.723,0,0,0,6.182,7.559A72.8,72.8,0,0,1,153.454,109.3a7.635,7.635,0,0,0,9.819-.947l6.343-6.494,11.691,11.971-6.565,6.722a7.786,7.786,0,0,0-.925,9.649,76.77,76.77,0,0,1,11.268,27.938,7.693,7.693,0,0,0,7.532,6.279h9.117v17.072h-9.167a7.7,7.7,0,0,0-7.528,6.254,76.781,76.781,0,0,1-11.318,27.84,7.783,7.783,0,0,0,.914,9.663l6.673,6.831-11.692,11.97-6.5-6.656a7.636,7.636,0,0,0-9.806-.955,72.822,72.822,0,0,1-27.061,11.471,7.723,7.723,0,0,0-6.182,7.559v9.637h-16.4v-9.637A7.723,7.723,0,0,0,97.487,247.91Zm142,133.3a5.991,5.991,0,0,0-1.573-.207.468.468,0,0,1-.1-.272v-2.805a.481.481,0,0,1,.48-.48h55.5a.481.481,0,0,1,.479.48v2.782a6.019,6.019,0,0,0-1.479.5Zm-22.273-52.4a25.068,25.068,0,0,1,7.527.474c.489.191,1.027.45,1.5.677.272.13.521.25.739.349a43.56,43.56,0,0,1,9.3,5.443l.684.51c2.466,1.816,5.5,3.684,10.364,2.886a11.27,11.27,0,0,0,8.12-5.955,42.1,42.1,0,0,0,2.076-4.166c.305-.677.7-1.558.973-2.045.8-.381,2.332-.625,4.98,1.767,6.3,5.688,12.1,7.058,20.022,4.724.469-.138.933-.3,1.391-.479,1.493-.586,6.325-2.866,8.866-5.565,2.952-3.138,3.705-3.016,5.124-2.441a36.89,36.89,0,0,1,3.481,1.911c3.337,1.962,7.545,4.436,12.154,5.517a56.721,56.721,0,0,0-13.429,13.908,125.386,125.386,0,0,0-10.55,19.126h-9.271a19.658,19.658,0,0,1,4.251-10.623,17.141,17.141,0,0,1,4.719-3.789,6,6,0,0,0-5.792-10.51,29.082,29.082,0,0,0-8,6.45c-5.156,5.961-6.786,13.224-7.222,18.472h-2c-2.034-5.93-5.628-14.805-7.765-18.217a6,6,0,1,0-10.171,6.369,92.065,92.065,0,0,1,5.181,11.848H244.235a73.377,73.377,0,0,0-9.875-19.929A66.362,66.362,0,0,0,217.216,328.807ZM322.675,471.916A45.754,45.754,0,0,1,286.151,490H245.983a45.762,45.762,0,0,1-37.161-18.87,44.979,44.979,0,0,1-6.943-40.371c.313-1.008.654-2.023,1.012-3.014,7.5-20.782,25.7-29.534,34.448-33.74.6-.288,1.134-.547,1.635-.793H293.8a12.467,12.467,0,0,0,1.717-.132c17.524,7.06,29.542,20.3,34.774,38.427q.177.612.339,1.219A44.9,44.9,0,0,1,322.675,471.916Zm98.657-269.058,5.822,31.843-6.377,7.083-6.124-6.968Zm1.8-24-1.907,7.325h-.692l-1.908-7.325Zm66.87,80.3H351.753V221.906c0-23.735,18.8-43.045,41.9-43.045h12.566l3.437,13.194a8.1,8.1,0,0,0,1.132,2.574l-8.5,40.667a6,6,0,0,0,1.367,5.188l12.555,14.288a6,6,0,0,0,4.471,2.039h.036a6,6,0,0,0,4.459-1.985l12.865-14.288a6,6,0,0,0,1.443-5.094l-7.737-42.314a7.756,7.756,0,0,0,.319-.985l3.459-13.284H448.1c23.106,0,41.9,19.31,41.9,43.045Z"/><path d="M454.455,205.52a6,6,0,0,0,0,12h19.286a6,6,0,0,0,0-12Z"/><path d="M272.377,412.132v-1.664a6,6,0,0,0-12,0v1.707a16.715,16.715,0,0,0-6.928,4.026,19.657,19.657,0,0,0-5.53,14.2c.119,8.183,6.243,15.069,14.891,16.747l2.252.438c.256.057.6.165.849.239.079.034.159.066.24.1l1,.382c.406.2.532.279.8.434l.535.312h0c.06.038.118.075.171.106,1.825,1.1,4.946,3.723,5.066,6.575.117,2.781-.777,4.011-1.46,4.694-1.694,1.694-4.805,2.369-6.979,2.277-1.916-.081-6.8-2.014-7.159-5.234a6,6,0,0,0-11.925,1.338c.93,8.3,7.927,13.3,14.174,15.117v1.094a6,6,0,0,0,12,0v-1.293a19.635,19.635,0,0,0,8.375-4.815c2.425-2.425,5.254-6.767,4.964-13.682-.393-9.331-8.412-14.872-10.878-16.358h0l-.34-.206,0,0-.52-.3c-.471-.274-.691-.4-1.4-.762a12.317,12.317,0,0,0-1.15-.509l-.906-.345a11.833,11.833,0,0,0-1.14-.407,20.761,20.761,0,0,0-2.039-.533l-2.245-.437c-3.535-.686-5.149-3.076-5.179-5.141a7.847,7.847,0,0,1,1.908-5.435c1.093-1.066,2.748-1.54,5.063-1.446,6.072.245,7.637,4.8,7.89,5.7l-.024-.094,11.67-2.795A20.092,20.092,0,0,0,272.377,412.132Z"/></svg>
