<svg id="Layer_1" height="512" viewBox="0 0 512 512" width="512" xmlns="http://www.w3.org/2000/svg" data-name="Layer 1"><path d="m457.938 106.021a29.76 29.76 0 0 0 -39.61 28.932l-66.034 33.933a116.059 116.059 0 0 0 -102.057-51.1l-8.571-65.886a24.355 24.355 0 1 0 -12 .774l8.63 66.345a115.87 115.87 0 0 0 -90.146 157.21l-36.213 17.623a42.1 42.1 0 1 0 4.077 36.266 41.748 41.748 0 0 0 .79-25.291l36.349-17.689a115.809 115.809 0 0 0 141.747 55.544l19.627 76.818a45.626 45.626 0 1 0 61.21 56.924 45.619 45.619 0 0 0 -49.661-60.2l-19.987-78.217a115.588 115.588 0 0 0 57.2-60.451l32.72 18.386c-.136.337-.267.677-.388 1.024a24.067 24.067 0 0 0 45.437 15.883 24.058 24.058 0 0 0 -37.854-26.63l-35.866-20.153a114.978 114.978 0 0 0 -6.839-82.833c-.655-1.359-1.341-2.7-2.044-4.022l62.761-32.251a29.8 29.8 0 0 0 55.01-3 29.772 29.772 0 0 0 -18.291-37.94zm-234.638-71.733a11.96 11.96 0 0 1 -.519-9.208 12.074 12.074 0 0 1 22.265-1.252 11.958 11.958 0 0 1 .52 9.207 12.075 12.075 0 0 1 -22.266 1.253zm109.364 393.441a33.635 33.635 0 0 1 31.747 44.732 33.659 33.659 0 1 1 -31.747-44.731zm-227.976-101.575a30.1 30.1 0 1 1 -1.3-23 30.178 30.178 0 0 1 1.3 23zm313.664-33.3a12.054 12.054 0 1 1 -11.4 8.077 12.048 12.048 0 0 1 11.4-8.08zm-64.182-25.01a103.882 103.882 0 1 1 -4.476-79.4 104.168 104.168 0 0 1 4.476 79.397zm110.73-127.844a17.773 17.773 0 1 1 -.766-13.582 17.644 17.644 0 0 1 .766 13.582z"/><path d="m257.021 228.087c12 0 21.051-8.611 21.051-20.03a21.051 21.051 0 1 0 -42.1 0c-.002 11.419 9.048 20.03 21.049 20.03zm0-29.082a9.062 9.062 0 0 1 9.051 9.052c0 5.517-4.692 8.03-9.051 8.03s-9.051-2.513-9.051-8.03a9.062 9.062 0 0 1 9.051-9.052z"/><path d="m257.574 229.824h-1.107a32.588 32.588 0 0 0 -32.551 32.551v4.157a7.8 7.8 0 0 0 7.794 7.794h50.621a7.8 7.8 0 0 0 7.793-7.794v-4.157a32.587 32.587 0 0 0 -32.55-32.551zm-21.658 32.5a20.576 20.576 0 0 1 20.551-20.5h1.107a20.574 20.574 0 0 1 20.55 20.5z"/></svg>