<svg height="517pt" viewBox="0 -51 517.3716 517" width="517pt" xmlns="http://www.w3.org/2000/svg"><path d="m459.746094 148.851562c-1.304688-1.890624-3.457032-3.023437-5.757813-3.023437s-4.457031 1.132813-5.761719 3.023437l-56.386718 81.714844c-1.480469 2.144532-1.648438 4.925782-.4375 7.230469 1.207031 2.304687 3.597656 3.746094 6.199218 3.746094h47.214844c-6.878906 44.890625-30.46875 85.667969-66.886718 115.351562-34.695313 28.273438-78.289063 44.492188-119.609376 44.492188-26.953124 0-55.128906-6.902344-81.484374-19.964844-27.074219-13.351563-50.769532-32.667969-69.308594-56.492187-2.359375-3.0625-6.753906-3.632813-9.816406-1.273438s-3.632813 6.757812-1.269532 9.820312c19.835938 25.507813 45.199219 46.1875 74.179688 60.488282 28.277344 14.015625 58.601562 21.421875 87.699218 21.421875 44.484376 0 91.300782-17.363281 128.453126-47.640625 39.699218-32.355469 65.222656-77.035156 72.199218-126.199219h51.398438c2.601562 0 4.988281-1.441406 6.199218-3.746094 1.207032-2.304687 1.039063-5.089843-.4375-7.230469zm-48.8125 78.691407 43.054687-62.390625 43.050781 62.390625zm0 0"/><path d="m125.972656 177.773438c-1.210937-2.304688-3.597656-3.746094-6.199218-3.746094h-47.214844c6.878906-44.890625 30.464844-85.667969 66.886718-115.347656 34.695313-28.277344 78.289063-44.492188 119.609376-44.492188 26.949218 0 55.128906 6.898438 81.480468 19.964844 27.074219 13.351562 50.773438 32.664062 69.308594 56.492187 2.359375 3.058594 6.757812 3.628907 9.820312 1.269531 3.058594-2.359374 3.628907-6.753906 1.269532-9.816406-19.839844-25.511718-45.199219-46.191406-74.179688-60.492187-28.277344-14.011719-58.601562-21.417969-87.699218-21.417969-44.484376 0-91.300782 17.363281-128.453126 47.636719-39.699218 32.355469-65.222656 77.039062-72.199218 126.199219h-51.402344c-2.601562 0-4.988281 1.445312-6.199219 3.75-1.207031 2.300781-1.039062 5.085937.4375 7.226562l56.386719 81.714844c1.308594 1.894531 3.460938 3.023437 5.761719 3.023437s4.453125-1.128906 5.761719-3.023437l56.386718-81.714844c1.476563-2.140625 1.644532-4.921875.4375-7.226562zm-62.585937 72.644531-43.050781-62.390625h86.097656zm0 0"/><path d="m313.941406 263.5625c13.386719-14.230469 20.867188-33.015625 20.929688-52.550781-.019532-34.253907-22.851563-64.296875-55.847656-73.492188-32.996094-9.191406-68.074219 4.714844-85.804688 34.023438-17.730469 29.304687-13.769531 66.832031 9.6875 91.792969 9.347656 9.855468 14.503906 22.953124 14.378906 36.535156h-.816406c-3.867188 0-7 3.136718-7 7 0 3.867187 3.132812 7 7 7h84.429688c3.867187 0 7-3.132813 7-7 0-3.863282-3.132813-7-7-7h-1.707032c-.273437-13.398438 4.75-25.839844 14.75-36.308594zm-82.65625 36.3125c.109375-17.179688-6.429687-33.734375-18.246094-46.203125-11.160156-11.78125-17.207031-27.496094-16.828124-43.71875.523437-32.769531 28.652343-60.894531 61.414062-61.421875 16.707031-.214844 32.800781 6.273438 44.6875 18.015625 11.890625 11.742187 18.574219 27.757813 18.5625 44.464844-.058594 15.96875-6.175781 31.316406-17.113281 42.949219-12.351563 12.921874-18.785157 29-18.550781 45.914062zm0 0"/><path d="m232.886719 329.1875c-3.867188 0-7 3.132812-7 7 0 3.863281 3.132812 7 7 7h51.601562c3.863281 0 7-3.136719 7-7 0-3.867188-3.136719-7-7-7zm0 0"/><path d="m263.929688 108.113281v-28.726562c0-3.867188-3.136719-7-7-7-3.867188 0-7 3.132812-7 7v28.726562c0 3.867188 3.132812 7 7 7 3.863281 0 7-3.132812 7-7zm0 0"/><path d="m353.777344 114.152344c-2.65625-2.808594-7.085938-2.9375-9.898438-.28125l-21.105468 19.933594c-2.8125 2.65625-2.9375 7.085937-.285157 9.898437 2.65625 2.808594 7.085938 2.9375 9.898438.28125l21.105469-19.933594c2.8125-2.65625 2.941406-7.085937.285156-9.898437zm0 0"/><path d="m193.828125 141.242188c2.753906-2.714844 2.785156-7.148438.070313-9.902344l-20.226563-20.519532c-2.71875-2.722656-7.125-2.738281-9.863281-.035156-2.742188 2.699219-2.789063 7.105469-.105469 9.863282l20.226563 20.519531c2.714843 2.753906 7.148437 2.785156 9.898437.070312zm0 0"/></svg>