<svg xmlns="http://www.w3.org/2000/svg" height="511pt" version="1.1" viewBox="0 1 511 511.999" width="511pt">
<g id="surface1">
<path d="M 488.96875 208.417969 L 478.195312 208.417969 C 472.148438 165.898438 453.980469 125.789062 425.535156 93.078125 C 391.828125 54.324219 345.914062 28.34375 295.707031 19.464844 C 293.773438 8.421875 284.121094 0 272.53125 0 L 240.46875 0 C 228.878906 0 219.226562 8.421875 217.292969 19.464844 C 167.085938 28.34375 121.171875 54.324219 87.464844 93.078125 C 59.019531 125.789062 40.851562 165.898438 34.804688 208.421875 L 24.03125 208.421875 C 11.054688 208.417969 0.5 218.976562 0.5 231.953125 L 0.5 247.984375 C 0.5 260.960938 11.054688 271.515625 24.03125 271.515625 L 32.5625 271.515625 L 32.5625 344.175781 C 32.5625 357.152344 43.121094 367.710938 56.09375 367.710938 L 89.617188 367.710938 C 94.554688 399.25 109.539062 428.792969 132.25 451.507812 C 155.140625 474.394531 184.960938 489.4375 216.777344 494.257812 C 219.363281 504.441406 228.609375 512 239.585938 512 L 273.410156 512 C 284.386719 512 293.632812 504.441406 296.21875 494.257812 C 328.035156 489.4375 357.859375 474.394531 380.746094 451.503906 C 403.457031 428.789062 418.441406 399.25 423.378906 367.710938 L 456.902344 367.710938 C 469.878906 367.710938 480.433594 357.152344 480.433594 344.175781 L 480.433594 271.515625 L 488.964844 271.515625 C 501.941406 271.515625 512.496094 260.960938 512.496094 247.984375 L 512.496094 231.953125 C 512.5 218.976562 501.941406 208.417969 488.96875 208.417969 Z M 240.46875 15 L 272.53125 15 C 277.238281 15 281.0625 18.828125 281.0625 23.53125 L 281.0625 176.355469 L 231.933594 176.355469 L 231.933594 23.53125 C 231.933594 18.828125 235.761719 15 240.46875 15 Z M 98.785156 102.921875 C 129.570312 67.523438 171.261719 43.546875 216.933594 34.777344 L 216.933594 176.355469 L 57.484375 176.355469 C 66.054688 149.523438 80.019531 124.496094 98.785156 102.921875 Z M 24.03125 256.515625 C 19.328125 256.515625 15.5 252.6875 15.5 247.984375 L 15.5 231.953125 C 15.5 227.246094 19.328125 223.421875 24.03125 223.421875 L 33.1875 223.421875 C 32.78125 228.910156 32.5625 234.429688 32.5625 239.96875 L 32.5625 256.515625 Z M 273.410156 497 L 239.585938 497 C 234.882812 497 231.054688 493.171875 231.054688 488.46875 C 231.054688 483.761719 234.882812 479.9375 239.585938 479.9375 L 273.410156 479.9375 C 278.117188 479.9375 281.945312 483.761719 281.945312 488.46875 C 281.945312 493.171875 278.117188 497 273.410156 497 Z M 370.140625 440.898438 C 349.773438 461.269531 323.320312 474.738281 295.066406 479.257812 C 291.472656 470.84375 283.121094 464.933594 273.410156 464.933594 L 239.585938 464.933594 C 229.878906 464.933594 221.527344 470.84375 217.933594 479.257812 C 189.679688 474.738281 163.226562 461.269531 142.859375 440.902344 C 122.945312 420.988281 109.625 395.253906 104.820312 367.710938 L 408.179688 367.710938 C 403.375 395.253906 390.054688 420.984375 370.140625 440.898438 Z M 465.433594 344.175781 C 465.433594 348.882812 461.609375 352.710938 456.902344 352.710938 L 448.371094 352.710938 L 448.371094 247.984375 C 448.371094 226.167969 430.621094 208.421875 408.808594 208.421875 L 104.191406 208.421875 C 82.375 208.421875 64.628906 226.167969 64.628906 247.984375 L 64.628906 312.109375 C 64.628906 316.253906 67.988281 319.609375 72.128906 319.609375 C 76.269531 319.609375 79.628906 316.253906 79.628906 312.109375 L 79.628906 247.984375 C 79.628906 234.4375 90.648438 223.421875 104.191406 223.421875 L 408.804688 223.421875 C 422.351562 223.421875 433.371094 234.441406 433.371094 247.984375 L 433.371094 352.710938 L 79.628906 352.710938 L 79.628906 344.175781 C 79.628906 340.035156 76.269531 336.675781 72.128906 336.675781 C 67.988281 336.675781 64.628906 340.035156 64.628906 344.175781 L 64.628906 352.710938 L 56.097656 352.710938 C 51.390625 352.710938 47.566406 348.882812 47.566406 344.179688 L 47.566406 239.96875 C 47.566406 223.472656 49.527344 207.164062 53.304688 191.355469 L 400.792969 191.355469 C 404.933594 191.355469 408.292969 187.996094 408.292969 183.855469 C 408.292969 179.714844 404.933594 176.355469 400.792969 176.355469 L 296.0625 176.355469 L 296.0625 34.777344 C 341.738281 43.546875 383.425781 67.523438 414.214844 102.921875 C 432.976562 124.496094 446.945312 149.523438 455.515625 176.355469 L 432.851562 176.355469 C 428.710938 176.355469 425.351562 179.714844 425.351562 183.855469 C 425.351562 187.996094 428.710938 191.355469 432.851562 191.355469 L 459.695312 191.355469 C 463.472656 207.164062 465.433594 223.472656 465.433594 239.96875 Z M 497.5 247.984375 C 497.5 252.6875 493.671875 256.515625 488.96875 256.515625 L 480.433594 256.515625 L 480.433594 239.96875 C 480.433594 234.429688 480.21875 228.910156 479.8125 223.417969 L 488.96875 223.417969 C 493.671875 223.417969 497.5 227.246094 497.5 231.949219 Z M 497.5 247.984375 " style=" stroke:none;fill-rule:nonzero;fill:rgb(0%,0%,0%);fill-opacity:1;" />
</g>
</svg>