<svg height="446pt" viewBox="-10 0 446 446.88862" width="446pt" xmlns="http://www.w3.org/2000/svg"><path d="m314.445312 238.878906c-6.238281 0-11.90625-3.628906-14.519531-9.292968l-48-104 29.054688-13.410157 27.886719 60.417969 10.585937-49.417969c1.847656-8.644531 10.355469-14.148437 19-12.296875 8.640625 1.851563 14.148437 10.359375 12.296875 19l-20.648438 96.351563c-1.445312 6.738281-7.035156 11.792969-13.882812 12.554687-.589844.0625-1.179688.09375-1.773438.09375zm0 0" fill="#f29a2b"/><path d="m201.5625 288h-7.917969c-13.253906 0-24-10.746094-24-24v-8h32c87.761719.011719 170.175781 42.183594 221.519531 113.359375 4.734376 7.15625 2.980469 16.777344-3.976562 21.800781-6.957031 5.023438-16.636719 3.664063-21.941406-3.078125-45.335938-62.851562-118.109375-100.085937-195.601563-100.082031zm0 0" fill="#4e4e4e"/><path d="m169.644531 264c0 13.253906 10.746094 24 24 24h7.917969c-1.890625 81.152344-62.898438 148.691406-143.4375 158.800781-4.484375.472657-8.960938-.96875-12.328125-3.96875s-5.308594-7.28125-5.351563-11.792969v-.320312c.125-8.105469 6.257813-14.859375 14.320313-15.757812 66.421875-8.621094 115.828125-65.667969 114.878906-132.640626zm0 0" fill="#4e4e4e"/><path d="m201.644531 112v32c-60.386719.078125-113 41.183594-127.679687 99.761719-1.960938 7.824219-9.445313 12.96875-17.457032 11.992187-8.007812-.976562-14.039062-7.765625-14.0625-15.832031.003907-1.324219.167969-2.636719.480469-3.921875 18.238281-72.824219 83.648438-123.925781 158.71875-124zm0 0" fill="#fecf2c"/><path d="m281.644531 112-32 144h-80l24-144zm0 0" fill="#fecf2c"/><path d="m244.285156 0c7.078125-.0195312 13.871094 2.777344 18.886719 7.777344 5.011719 4.996094 7.832031 11.785156 7.832031 18.863281.003906 1.425781-.15625 2.847656-.480468 4.238281h-52.878907v-4.238281c-.003906-14.714844 11.925781-26.64453125 26.640625-26.640625zm0 0" fill="#cf631b"/><path d="m217.644531 30.878906h52.878907c-.179688 1.226563-.472657 2.429688-.878907 3.601563l-7.519531 45.519531h-44.480469zm0 0" fill="#eecfb1"/><path d="m312.445312 46.878906h32v32h-32zm0 0" fill="#0f71c7"/><path d="m416.445312 22.878906v80l-72-24v-32zm0 0" fill="#168de2"/><path d="m328.445312 78.878906h16v24h-16zm0 0" fill="#4e4e4e"/><g fill="#0f71c7"><path d="m248.445312 112-8.242187 32.800781-15.519531-3.839843 7.28125-28.960938zm0 0"/><path d="m134.101562 212.535156-11.3125-11.3125 7.253907-7.253906c12.414062-12.417969 30.933593-16.4375 47.378906-10.289062 8.050781 3.007812 17.027344 2.261718 24.472656-2.035157 7.445313-4.296875 12.582031-11.695312 14.003907-20.171875l.65625-3.9375 15.777343 2.640625-.65625 3.929688c-2.210937 13.195312-10.203125 24.710937-21.789062 31.398437-11.589844 6.6875-25.558594 7.847656-38.089844 3.160156-10.550781-3.933593-22.425781-1.359374-30.402344 6.59375zm0 0"/><path d="m.445312 286.878906h112v72h-112zm0 0"/></g></svg>